<svg width="1440" height="1300" viewBox="0 0 1440 1300" fill="none" xmlns="http://www.w3.org/2000/svg">
<path d="M1485.77 10.2494L1473.47 0.77124M1485.77 10.2494H1449.32M1485.77 10.2494L1498.47 20.0406M1485.77 10.2494H1511.57M1473.47 0.77124L1477.94 0.774935L1482.37 0.795458L1486.71 0.853161L1490.91 0.966804L1494.93 1.15122L1498.72 1.42882L1502.24 1.81443L1505.51 2.30619L1508.32 2.98617L1510.87 3.77416L1511.57 4.05017V10.2494M1473.47 0.77124H1437.61M1437.61 0.77124H1401.76M1437.61 0.77124L1449.32 10.2494M1401.76 0.77124H1365.9M1401.76 0.77124L1412.88 10.2494M1365.9 0.77124H1330.05M1365.9 0.77124L1376.44 10.2494M1330.05 0.77124H1294.19M1330.05 0.77124L1340 10.2494M1294.19 0.77124H1258.33M1294.19 0.77124L1303.56 10.2494M1258.33 0.77124H1222.48M1258.33 0.77124L1267.12 10.2494M1222.48 0.77124H1186.62M1222.48 0.77124L1230.68 10.2494M1186.62 0.77124H1150.77M1186.62 0.77124L1194.24 10.2494M1150.77 0.77124H1114.91M1150.77 0.77124L1157.8 10.2494M1114.91 0.77124H1079.06M1114.91 0.77124L1121.35 10.2494M1079.06 0.77124H1043.2M1079.06 0.77124L1084.91 10.2494M1043.2 0.77124H1007.35M1043.2 0.77124L1044.5 3.11283L1046.48 6.65787L1048.47 10.2494M1007.35 0.77124H971.49M1007.35 0.77124L1008.5 3.11283L1012.03 10.2494M971.49 0.77124H935.634M971.49 0.77124L975.588 10.2494M935.634 0.77124H899.778M935.634 0.77124L936.938 4.29013L938.259 7.85007L938.702 9.04789L939.148 10.2494M899.778 0.77124H863.923M899.778 0.77124L900.865 4.29013L901.231 5.47119L901.597 6.65787L902.707 10.2494M863.923 0.77124H828.067M863.923 0.77124L866.265 10.2494M828.067 0.77124L828.284 1.93922L828.501 3.11283L829.601 9.04789L829.824 10.2494M828.067 0.77124H792.212M792.212 0.77124H756.355M792.212 0.77124L793.383 10.2494M756.355 0.77124H720.5M756.355 0.77124L756.573 4.29013L756.941 10.2494M720.5 0.77124H684.645M720.5 0.77124V10.2494M684.645 0.77124H648.788M684.645 0.77124L684.427 4.29013L684.059 10.2494M648.788 0.77124H612.933M648.788 0.77124L647.617 10.2494M612.933 0.77124L612.716 1.93922L612.499 3.11283L611.399 9.04789L611.176 10.2494M612.933 0.77124H577.077M577.077 0.77124H541.221M577.077 0.77124L575.032 9.04789L574.735 10.2494M541.221 0.77124H505.366M541.221 0.77124L540.135 4.29013L539.769 5.47119L539.034 7.85007L538.665 9.04789L538.293 10.2494M505.366 0.77124H469.51M505.366 0.77124L504.062 4.29013L502.741 7.85007L502.298 9.04789L501.852 10.2494M469.51 0.77124H433.655M469.51 0.77124L465.412 10.2494M433.655 0.77124H397.799M433.655 0.77124L432.498 3.11283L428.97 10.2494M397.799 0.77124H361.943M397.799 0.77124L392.529 10.2494M361.943 0.77124H326.088M361.943 0.77124L356.088 10.2494M326.088 0.77124H290.232M326.088 0.77124L319.646 10.2494M290.232 0.77124H254.376M290.232 0.77124L283.205 10.2494M254.376 0.77124H218.521M254.376 0.77124L246.764 10.2494M218.521 0.77124H182.665M218.521 0.77124L210.322 10.2494M182.665 0.77124H146.809M182.665 0.77124L173.881 10.2494M146.809 0.77124H110.954M146.809 0.77124L137.44 10.2494M110.954 0.77124H75.0982M110.954 0.77124L100.998 10.2494M75.0982 0.77124H39.2419M75.0982 0.77124L64.5571 10.2494M39.2419 0.77124H3.38651M39.2419 0.77124L28.1166 10.2494M3.38651 0.77124H-32.4689M3.38651 0.77124L-8.32469 10.2494M-32.4689 0.77124L-36.9434 0.774935L-41.3718 0.795458L-45.7079 0.853161L-49.908 0.966804L-53.926 1.15122L-57.719 1.42882L-61.2418 1.81443L-64.5115 2.30619L-67.3174 2.98617L-69.8719 3.77416L-70.574 4.05023V10.2494M-32.4689 0.77124L-44.766 10.2494M28.1166 10.2494H64.5571M28.1166 10.2494H-8.32469M28.1166 10.2494L16.6205 20.0406M64.5571 10.2494L53.6667 20.0406M64.5571 10.2494H100.998M173.881 10.2494H210.322M173.881 10.2494H137.44M173.881 10.2494L171.641 12.6674L164.806 20.0406M210.322 10.2494L201.852 20.0406M210.322 10.2494H246.764M319.646 10.2494H356.088M319.646 10.2494H283.205M319.646 10.2494L318.003 12.6674L317.176 13.882L312.991 20.0406M356.088 10.2494L355.342 11.4547L354.594 12.6674L350.038 20.0406M356.088 10.2494H392.529M465.412 10.2494L464.889 11.4547L461.176 20.0406M465.412 10.2494H501.852M465.412 10.2494H428.97M501.852 10.2494L500.956 12.6674L500.505 13.882L500.052 15.1041L498.222 20.0406M501.852 10.2494H538.293M611.176 10.2494H647.617M611.176 10.2494H574.735M611.176 10.2494L609.362 20.0406M647.617 10.2494L647.468 11.4547L647.319 12.6674L647.168 13.882L646.713 17.5612L646.408 20.0406M647.617 10.2494H684.059M756.941 10.2494H793.383M756.941 10.2494H720.5M756.941 10.2494L757.546 20.0406M793.383 10.2494L793.532 11.4547L793.681 12.6674L793.832 13.882L794.592 20.0406M793.383 10.2494H829.824M902.707 10.2494H939.148M902.707 10.2494H866.265M902.707 10.2494L903.453 12.6674L904.966 17.5612L905.348 18.7981L905.732 20.0406M939.148 10.2494L940.044 12.6674L940.495 13.882L940.948 15.1041L942.778 20.0406M939.148 10.2494H975.588M1048.47 10.2494H1084.91M1048.47 10.2494H1012.03M1048.47 10.2494L1049.82 12.6674L1050.49 13.882L1053.92 20.0406M1084.91 10.2494L1085.66 11.4547L1086.41 12.6674L1090.96 20.0406M1084.91 10.2494H1121.35M1194.24 10.2494H1230.68M1194.24 10.2494H1157.8M1194.24 10.2494L1196.18 12.6674L1197.16 13.882L1202.1 20.0406M1230.68 10.2494L1239.15 20.0406M1230.68 10.2494H1267.12M1340 10.2494H1376.44M1340 10.2494H1303.56M1340 10.2494L1350.29 20.0406M1376.44 10.2494L1387.33 20.0406M1376.44 10.2494H1412.88M-70.7017 98.8841H-70.574M-34.0231 98.8841L-20.11 86.375M-34.0231 98.8841L-48.4692 111.872M-34.0231 98.8841H7.8948M-34.0231 98.8841H-70.574M-20.11 86.375H-61.255M-20.11 86.375L-6.70051 74.3186M-20.11 86.375H21.0349M-61.255 86.375L-47.1005 74.3186M-61.255 86.375H-70.574M-61.255 86.375L-70.574 94.311M-20.2765 51.4688H18.7119M-20.2765 51.4688L-7.55503 40.6326M-20.2765 51.4688H-59.2641M-20.2765 51.4688L-33.4504 62.6907M18.7119 51.4688L30.7642 40.6326M18.7119 51.4688L6.23189 62.6907M18.7119 51.4688H57.7003M-7.55503 40.6326H30.7642M-7.55503 40.6326L4.7371 30.1633M-7.55503 40.6326H-45.8735M30.7642 40.6326H69.0827M30.7642 40.6326L42.4087 30.1633M-70.9753 296.328H-70.574M-37.1519 296.328L-19.211 275.589M-37.1519 296.328L-55.9844 318.099M-37.1519 296.328H16.9666M-37.1519 296.328H-70.574M-19.211 275.589L-2.09992 255.809M-19.211 275.589H33.6253M-19.211 275.589H-70.574M-53.7142 255.809H-2.09992M-53.7142 255.809L-36.21 236.924M-53.7142 255.809H-70.574M-53.7142 255.809L-70.574 273.999M-19.4805 218.872H29.8512M-19.4805 218.872L-3.47441 201.604M-19.4805 218.872H-68.8122M-19.4805 218.872L-36.21 236.924M29.8512 218.872L44.791 201.604M29.8512 218.872L14.2366 236.924M29.8512 218.872H79.1838M-3.47441 201.604H44.791M-3.47441 201.604H-51.739M-3.47441 201.604L11.8543 185.065M44.791 201.604L59.0971 185.065M44.791 201.604H93.0556M40.6428 154.004H85.9664M40.6428 154.004L54.1776 139.401M40.6428 154.004H-4.6808M40.6428 154.004L26.5469 169.212M85.9664 154.004L98.5988 139.401M85.9664 154.004L72.8107 169.212M85.9664 154.004H131.291M54.1776 139.401H98.5988M54.1776 139.401H9.7563M54.1776 139.401L67.1842 125.368M98.5988 139.401L110.739 125.368M98.5988 139.401H143.021M91.7305 98.8841H133.648M91.7305 98.8841L103.325 86.375M91.7305 98.8841H49.8127M91.7305 98.8841L79.6922 111.872M133.648 98.8841L144.47 86.375M133.648 98.8841L122.413 111.872M133.648 98.8841H175.566M103.325 86.375H144.47M103.325 86.375H62.1798M103.325 86.375L114.499 74.3186M144.47 86.375L154.899 74.3186M144.47 86.375H185.615M135.676 51.4688H174.665M135.676 51.4688L145.72 40.6326M135.676 51.4688H96.6887M135.676 51.4688L125.276 62.6907M174.665 51.4688L184.038 40.6326M174.665 51.4688L164.958 62.6907M174.665 51.4688H213.653M145.72 40.6326H184.038M145.72 40.6326L155.424 30.1633M145.72 40.6326H107.401M184.038 40.6326H222.357M184.038 40.6326L193.096 30.1633M-42.8477 655.885L-17.5975 615.02M-42.8477 655.885L-69.8875 699.646M-42.8477 655.885H33.4869M-42.8477 655.885H-70.574M-17.5975 615.02L6.0366 576.772M-17.5975 615.02H56.2121M-17.5975 615.02H-70.574M-18.1101 507.179H49.0364M-18.1101 507.179L3.46726 475.434M-18.1101 507.179L-41.0265 540.897M-18.1101 507.179H-70.574M49.0364 507.179L68.6518 475.434M49.0364 507.179L28.2032 540.897M49.0364 507.179H116.183M3.46726 475.434H68.6518M3.46726 475.434H-61.7172M3.46726 475.434L23.8201 445.489M68.6518 475.434L87.1546 445.489M68.6518 475.434H133.837M61.2445 390.427H121.177M61.2445 390.427L78.4891 365.056M61.2445 390.427H1.3124M61.2445 390.427L43.049 417.2M121.177 390.427L136.854 365.056M121.177 390.427L104.635 417.2M121.177 390.427H181.11M78.4891 365.056H136.854M78.4891 365.056H20.1243M78.4891 365.056L94.8536 340.979M136.854 365.056L151.731 340.979M136.854 365.056H195.218M125.202 296.328H179.321M125.202 296.328L139.299 275.589M125.202 296.328H71.0843M125.202 296.328L110.406 318.099M179.321 296.328L192.135 275.589M179.321 296.328L165.868 318.099M179.321 296.328H233.438M139.299 275.589H192.135M139.299 275.589H86.4625M139.299 275.589L152.743 255.809M192.135 275.589L204.357 255.809M192.135 275.589H244.971M177.848 218.872H227.18M177.848 218.872L189.586 201.604M177.848 218.872H128.515M177.848 218.872L165.579 236.924M227.18 218.872L237.851 201.604M227.18 218.872L216.026 236.924M227.18 218.872H276.511M189.586 201.604H237.851M189.586 201.604H141.321M189.586 201.604L200.826 185.065M237.851 201.604L248.07 185.065M237.851 201.604H286.116M221.938 154.004H267.262M221.938 154.004L231.863 139.401M221.938 154.004H176.614M221.938 154.004L211.601 169.212M267.262 154.004L268.41 152.147L276.285 139.401M267.262 154.004L257.865 169.212M267.262 154.004H312.586M231.863 139.401H276.285M231.863 139.401H187.442M231.863 139.401L241.402 125.368M276.285 139.401L284.956 125.368M276.285 139.401H320.707M259.402 98.8841H301.321M259.402 98.8841L267.905 86.375M259.402 98.8841H217.484M259.402 98.8841L250.574 111.872M301.321 98.8841L309.05 86.375M301.321 98.8841L298.347 103.698L293.294 111.872M301.321 98.8841H343.238M267.905 86.375H309.05M267.905 86.375H226.76M267.905 86.375L276.099 74.3186M309.05 86.375L316.499 74.3186M309.05 86.375H350.195M291.629 51.4688H330.618M291.629 51.4688L298.994 40.6326M291.629 51.4688H252.642M291.629 51.4688L284.003 62.6907M330.618 51.4688L335.661 43.3077L336.489 41.9664L337.314 40.6326M330.618 51.4688L323.684 62.6907M330.618 51.4688H369.606M298.994 40.6326H337.314M298.994 40.6326L306.111 30.1633M298.994 40.6326H260.676M337.314 40.6326H375.632M337.314 40.6326L343.782 30.1633M-15.1905 1121.4H89.9086M-15.1905 1121.4L17.9027 1044.89M-15.1905 1121.4L-51.5552 1205.47M-15.1905 1121.4L-70.574 1121.4M89.9086 1121.4L118.274 1044.89M89.9086 1121.4L58.7386 1205.47M89.9086 1121.4H195.007M17.9027 1044.89H118.274M17.9027 1044.89L48.1473 974.963M17.9027 1044.89H-70.574M118.274 1044.89L144.198 974.963M118.274 1044.89H218.645M101.443 851.742H189.881M101.443 851.742L125.044 797.177M101.443 851.742H13.0071M101.443 851.742L75.895 910.81M189.881 851.742L210.109 797.177M189.881 851.742L167.982 910.81M189.881 851.742H278.317M125.044 797.177H210.109M125.044 797.177H39.9786M125.044 797.177L146.911 746.621M210.109 797.177L228.852 746.621M210.109 797.177H295.174M186.157 655.885H262.491M186.157 655.885L203.832 615.02M186.157 655.885H109.821M186.157 655.885L167.229 699.646M262.491 655.885L277.642 615.02M262.491 655.885L246.268 699.646M262.491 655.885H338.826M203.832 615.02H277.642M203.832 615.02H130.022M203.832 615.02L220.376 576.772M277.642 615.02L291.822 576.772M277.642 615.02H351.452M250.475 507.179H317.622M250.475 507.179L264.207 475.434M250.475 507.179H183.329M250.475 507.179L235.892 540.897M317.622 507.179L329.391 475.434M317.622 507.179L305.122 540.897M317.622 507.179H384.768M264.207 475.434H329.391M264.207 475.434H199.022M264.207 475.434L277.158 445.489M329.391 475.434L340.493 445.489M329.391 475.434H394.576M300.974 390.427H360.907M300.974 390.427L311.947 365.056M300.974 390.427H241.042M300.974 390.427L289.394 417.2M360.907 390.427L370.312 365.056M360.907 390.427L350.981 417.2M360.907 390.427H420.839M311.947 365.056H370.312M311.947 365.056H253.583M311.947 365.056L322.362 340.979M370.312 365.056L379.238 340.979M370.312 365.056H428.677M341.674 296.328H395.792M341.674 296.328L350.645 275.589M341.674 296.328H287.556M341.674 296.328L332.258 318.099M395.792 296.328L403.481 275.589M395.792 296.328L387.721 318.099M395.792 296.328H449.91M350.645 275.589H403.481M350.645 275.589H297.808M350.645 275.589L359.2 255.809M403.481 275.589L410.814 255.809M403.481 275.589H456.318M375.176 218.872H424.508M375.176 218.872L382.646 201.604M375.176 218.872H325.844M375.176 218.872L367.369 236.924M424.508 218.872L430.91 201.604M424.508 218.872L417.816 236.924M424.508 218.872H473.84M382.646 201.604H430.91M382.646 201.604H334.38M382.646 201.604L389.799 185.065M430.91 201.604L437.042 185.065M430.91 201.604H479.176M403.233 154.004H448.558M403.233 154.004L409.549 139.401M403.233 154.004H357.91M403.233 154.004L396.655 169.212M448.558 154.004L447.865 155.871L442.919 169.212M448.558 154.004L453.971 139.401M448.558 154.004H493.881M409.549 139.401H453.971M409.549 139.401H365.128M409.549 139.401L415.619 125.368M453.971 139.401L459.174 125.368M453.971 139.401H498.393M427.074 98.8841H468.992M427.074 98.8841L432.485 86.375M427.074 98.8841H385.156M427.074 98.8841L421.457 111.872M468.992 98.8841L473.63 86.375M468.992 98.8841L467.208 103.698L466.004 106.945L464.177 111.872M468.992 98.8841H510.91M432.485 86.375H473.63M432.485 86.375H391.34M432.485 86.375L437.699 74.3186M473.63 86.375L475.326 81.8017L476.443 78.7876L478.1 74.3186M473.63 86.375H514.775M447.583 51.4688H486.57M447.583 51.4688L451.113 43.3077L452.269 40.6326M447.583 51.4688H408.594M447.583 51.4688L443.345 61.2656L442.729 62.6907M486.57 51.4688L489.597 43.3077L490.093 41.9664L490.588 40.6326M486.57 51.4688L484.509 57.0294L482.411 62.6907M486.57 51.4688H525.559M452.269 40.6326H490.588M452.269 40.6326L456.798 30.1633M452.269 40.6326H413.951M490.588 40.6326H528.907M490.588 40.6326L494.47 30.1633M405.204 1121.4H510.303M405.204 1121.4L419.387 1044.89M405.204 1121.4H300.106M405.204 1121.4L389.619 1205.47M510.303 1121.4L519.758 1044.89M510.303 1121.4L499.913 1205.47M510.303 1121.4H615.402M419.387 1044.89H519.758M419.387 1044.89H319.016M419.387 1044.89L432.349 974.963M519.758 1044.89L528.399 974.963M519.758 1044.89H620.129M455.19 851.742H543.627M455.19 851.742L465.305 797.177M455.19 851.742H366.753M455.19 851.742L444.241 910.81M543.627 851.742L550.37 797.177M543.627 851.742L536.327 910.81M543.627 851.742H632.064M465.305 797.177H550.37M465.305 797.177H380.239M465.305 797.177L474.676 746.621M550.37 797.177L556.618 746.621M550.37 797.177H635.435M491.496 655.885H567.83M491.496 655.885L499.071 615.02M491.496 655.885H415.161M491.496 655.885L483.384 699.646M567.83 655.885L572.881 615.02M567.83 655.885L562.423 699.646M567.83 655.885H644.166M499.071 615.02H572.881M499.071 615.02H425.261M499.071 615.02L506.161 576.772M572.881 615.02L577.607 576.772M572.881 615.02H646.69M519.061 507.179H586.207M519.061 507.179L524.946 475.434M519.061 507.179H451.915M519.061 507.179L512.811 540.897M586.207 507.179L590.13 475.434M586.207 507.179L582.041 540.897M586.207 507.179H653.354M524.946 475.434H590.13M524.946 475.434H459.761M524.946 475.434L530.496 445.489M590.13 475.434L593.831 445.489M590.13 475.434H655.316M540.703 390.427H600.636M540.703 390.427L545.406 365.056M540.703 390.427H480.771M540.703 390.427L535.741 417.2M600.636 390.427L603.77 365.056M600.636 390.427L597.327 417.2M600.636 390.427H660.568M545.406 365.056H603.77M545.406 365.056H487.042M545.406 365.056L549.869 340.979M603.77 365.056L606.746 340.979M603.77 365.056H662.135M558.146 296.328H612.264M558.146 296.328L561.99 275.589M558.146 296.328H504.028M558.146 296.328L554.111 318.099M612.264 296.328L614.827 275.589M612.264 296.328L609.573 318.099M612.264 296.328H666.382M561.99 275.589H614.827M561.99 275.589H509.154M561.99 275.589L563.386 268.063L565.657 255.809M614.827 275.589L617.271 255.809M614.827 275.589H667.664M572.504 218.872H621.836M572.504 218.872L575.705 201.604M572.504 218.872H523.172M572.504 218.872L570.009 232.335L569.158 236.924M621.836 218.872L622.647 212.308L623.97 201.604M621.836 218.872L619.605 236.924M621.836 218.872H671.168M575.705 201.604L576.095 199.497L578.771 185.065M575.705 201.604H623.97M575.705 201.604H527.44M623.97 201.604L624.747 195.319L625.003 193.245L625.258 191.185L626.014 185.065M623.97 201.604H672.235M584.528 154.004H629.852M584.528 154.004L585.895 146.629L586.233 144.809L586.569 142.997L586.903 141.195L587.235 139.401M584.528 154.004H539.205M584.528 154.004L581.709 169.212M629.852 154.004L631.213 142.997L631.436 141.195L631.657 139.401M629.852 154.004L627.973 169.212M629.852 154.004H675.176M587.235 139.401H631.657M587.235 139.401H542.814M587.235 139.401L588.874 130.566L589.196 128.824L589.837 125.368M631.657 139.401L632.749 130.566L632.964 128.824L633.178 127.091L633.391 125.368M631.657 139.401H676.079M594.746 98.8841H636.664M594.746 98.8841L597.065 86.375M594.746 98.8841H552.828M594.746 98.8841L594.152 102.084L593.252 106.945L592.339 111.872M636.664 98.8841L636.467 100.481L635.263 110.221L635.059 111.872M636.664 98.8841L638.21 86.375M636.664 98.8841H678.582M597.065 86.375H638.21M597.065 86.375H555.92M597.065 86.375L599.3 74.3186M638.21 86.375L638.775 81.8017L638.962 80.2909L639.148 78.7876L639.7 74.3186M638.21 86.375H679.355M603.536 51.4688H642.523M603.536 51.4688L605.049 43.3077L605.544 40.6326M603.536 51.4688H564.547M603.536 51.4688L602.764 55.6304L602.505 57.0294L602.244 58.4359L601.455 62.6907M642.523 51.4688L642.694 50.094L643.031 47.3612L643.366 44.6527L643.862 40.6326M642.523 51.4688L641.836 57.0294L641.663 58.4359L641.313 61.2656L641.137 62.6907M642.523 51.4688H681.512M605.544 40.6326H643.862M605.544 40.6326L607.245 31.4525L607.485 30.1633M605.544 40.6326H567.225M643.862 40.6326L644.027 39.3044L644.19 37.9817L644.353 36.6647L644.515 35.3533L644.997 31.4525L645.157 30.1633M643.862 40.6326H682.182M825.598 1121.4H930.697M825.598 1121.4L820.871 1044.89M825.598 1121.4H720.5M825.598 1121.4L830.794 1205.47M930.697 1121.4L921.242 1044.89M930.697 1121.4L941.087 1205.47M930.697 1121.4H1035.8M820.871 1044.89H921.242M820.871 1044.89H720.5M820.871 1044.89L816.55 974.963M921.242 1044.89L912.601 974.963M921.242 1044.89H1021.61M808.936 851.742H897.373M808.936 851.742L805.565 797.177M808.936 851.742H720.5M808.936 851.742L812.587 910.81M897.373 851.742L890.63 797.177M897.373 851.742L904.673 910.81M897.373 851.742H985.81M805.565 797.177H890.63M805.565 797.177H720.5M805.565 797.177L802.441 746.621M890.63 797.177L884.383 746.621M890.63 797.177H975.695M796.835 655.885H873.17M796.835 655.885L794.31 615.02M796.835 655.885H720.5M796.835 655.885L799.539 699.646M873.17 655.885L868.119 615.02M873.17 655.885L878.577 699.646M873.17 655.885H949.504M794.31 615.02H868.119M794.31 615.02H720.5M794.31 615.02L791.946 576.772M868.119 615.02L863.393 576.772M868.119 615.02H941.929M787.647 507.179H854.793M787.647 507.179L785.684 475.434M787.647 507.179H720.5M787.647 507.179L789.73 540.897M854.793 507.179L850.87 475.434M854.793 507.179L858.959 540.897M854.793 507.179H921.939M785.684 475.434H850.87M785.684 475.434H720.5M785.684 475.434L783.835 445.489M850.87 475.434L847.169 445.489M850.87 475.434H916.054M780.432 390.427H840.364M780.432 390.427L778.865 365.056M780.432 390.427H720.5M780.432 390.427L782.087 417.2M840.364 390.427L837.23 365.056M840.364 390.427L843.673 417.2M840.364 390.427H900.297M778.865 365.056H837.23M778.865 365.056H720.5M778.865 365.056L777.377 340.979M837.23 365.056L834.254 340.979M837.23 365.056H895.594M774.618 296.328H828.736M774.618 296.328L773.336 275.589M774.618 296.328H720.5M774.618 296.328L775.963 318.099M828.736 296.328L826.173 275.589M828.736 296.328L831.427 318.099M828.736 296.328H882.854M773.336 275.589H826.173M773.336 275.589H720.5M773.336 275.589L772.114 255.809M826.173 275.589L823.729 255.809M826.173 275.589H879.01M769.832 218.872H819.164M769.832 218.872L768.765 201.604M769.832 218.872H720.5M769.832 218.872L770.947 236.924M819.164 218.872L817.291 203.722L817.03 201.604M819.164 218.872L821.395 236.924M819.164 218.872H868.496M768.765 201.604L768.635 199.497L767.743 185.065M768.765 201.604H817.03M768.765 201.604H720.5M817.03 201.604L816.253 195.319L815.997 193.245L815.742 191.185L814.986 185.065M817.03 201.604H865.295M765.824 154.004H811.148M765.824 154.004L764.921 139.401M765.824 154.004H720.5M765.824 154.004L766.171 159.634L766.289 161.53L766.406 163.436L766.644 167.277L766.764 169.212M811.148 154.004L809.788 142.997L809.343 139.401M811.148 154.004L813.027 169.212M811.148 154.004H856.472M764.921 139.401H809.343M764.921 139.401H720.5M764.921 139.401L764.054 125.368M809.343 139.401L808.252 130.566L808.036 128.824L807.822 127.091L807.609 125.368M809.343 139.401H853.765M762.418 98.8841H804.336M762.418 98.8841L761.645 86.375M762.418 98.8841H720.5M762.418 98.8841L763.221 111.872M804.336 98.8841L804.533 100.481L805.737 110.221L805.941 111.872M804.336 98.8841L802.79 86.375M804.336 98.8841H846.254M761.645 86.375H802.79M761.645 86.375H720.5M761.645 86.375L760.9 74.3186M802.79 86.375L802.225 81.8017L802.038 80.2909L801.852 78.7876L801.3 74.3186M802.79 86.375H843.935M759.489 51.4688H798.477M759.489 51.4688L758.818 40.6326M759.489 51.4688H720.5M759.489 51.4688L760.181 62.6907M798.477 51.4688L798.306 50.094L797.968 47.3612L797.801 46.0032L797.467 43.3077L797.303 41.9664L797.137 40.6326M798.477 51.4688L799.164 57.0294L799.337 58.4359L799.687 61.2656L799.863 62.6907M798.477 51.4688H837.464M758.818 40.6326L758.737 39.3044L758.655 37.9817L758.574 36.6647L758.172 30.1633M758.818 40.6326H797.137M758.818 40.6326H720.5M797.137 40.6326H835.456M797.137 40.6326L796.81 37.9817L796.647 36.6647L796.485 35.3533L796.003 31.4525L795.843 30.1633M1245.99 1121.4H1351.09M1245.99 1121.4L1222.35 1044.89M1245.99 1121.4H1140.89M1245.99 1121.4L1271.97 1205.47M1351.09 1121.4L1322.73 1044.89M1351.09 1121.4L1382.26 1205.47M1351.09 1121.4H1456.19M1222.35 1044.89H1322.73M1222.35 1044.89H1121.98M1222.35 1044.89L1200.75 974.963M1322.73 1044.89L1296.8 974.963M1322.73 1044.89H1423.1M1162.68 851.742H1251.12M1162.68 851.742L1145.83 797.177M1162.68 851.742H1074.25M1162.68 851.742L1180.93 910.81M1251.12 851.742L1230.89 797.177M1251.12 851.742L1273.02 910.81M1251.12 851.742H1339.56M1145.83 797.177H1230.89M1145.83 797.177H1060.76M1145.83 797.177L1130.21 746.621M1230.89 797.177L1212.15 746.621M1230.89 797.177H1315.96M1102.17 655.885H1178.51M1102.17 655.885L1089.55 615.02M1102.17 655.885H1025.84M1102.17 655.885L1115.69 699.646M1178.51 655.885L1163.36 615.02M1178.51 655.885L1194.73 699.646M1178.51 655.885H1254.84M1089.55 615.02H1163.36M1089.55 615.02H1015.74M1089.55 615.02L1077.73 576.772M1163.36 615.02L1149.18 576.772M1163.36 615.02H1237.17M1056.23 507.179H1123.38M1056.23 507.179L1046.42 475.434M1056.23 507.179H989.085M1056.23 507.179L1066.65 540.897M1123.38 507.179L1111.61 475.434M1123.38 507.179L1135.88 540.897M1123.38 507.179H1190.52M1046.42 475.434H1111.61M1046.42 475.434H981.239M1046.42 475.434L1037.17 445.489M1111.61 475.434L1100.51 445.489M1111.61 475.434H1176.79M1020.16 390.427H1080.09M1020.16 390.427L1012.32 365.056M1020.16 390.427H960.229M1020.16 390.427L1028.43 417.2M1080.09 390.427L1070.69 365.056M1080.09 390.427L1090.02 417.2M1080.09 390.427H1140.03M1012.32 365.056H1070.69M1012.32 365.056H953.958M1012.32 365.056L1004.88 340.979M1070.69 365.056L1061.76 340.979M1070.69 365.056H1129.05M991.09 296.328H1045.21M991.09 296.328L984.682 275.589M991.09 296.328H936.972M991.09 296.328L997.816 318.099M1045.21 296.328L1037.52 275.589M1045.21 296.328L1053.28 318.099M1045.21 296.328H1099.33M984.682 275.589H1037.52M984.682 275.589H931.846M984.682 275.589L978.571 255.809M1037.52 275.589L1030.19 255.809M1037.52 275.589H1090.36M967.16 218.872L967.843 221.086L968.531 223.31L972.736 236.924M967.16 218.872H1016.49M967.16 218.872L961.825 201.604M967.16 218.872H917.828M1016.49 218.872L1010.09 201.604M1016.49 218.872L1023.18 236.924M1016.49 218.872H1065.82M961.825 201.604H1010.09M961.825 201.604H913.56M961.825 201.604L956.715 185.065M1010.09 201.604L1003.96 185.065M1010.09 201.604H1058.35M947.119 154.004H992.443M947.119 154.004L942.607 139.401M947.119 154.004H901.795M947.119 154.004L951.817 169.212M992.443 154.004L989.033 144.809L987.029 139.401M992.443 154.004L998.081 169.212M992.443 154.004H1037.77M942.607 139.401H987.029M942.607 139.401H898.186M942.607 139.401L938.805 127.091L938.272 125.368M987.029 139.401L981.826 125.368M987.029 139.401H1031.45M930.09 98.8841H972.008M930.09 98.8841L929.11 95.7117L926.225 86.375M930.09 98.8841H888.172M930.09 98.8841L931.079 102.084L933.085 108.578L934.102 111.872M972.008 98.8841L967.37 86.375M972.008 98.8841L973.792 103.698L974.996 106.945L976.823 111.872M972.008 98.8841H1013.93M926.225 86.375H967.37M926.225 86.375H885.08M926.225 86.375L923.419 77.2899L922.5 74.3186M967.37 86.375L965.674 81.8017L964.557 78.7876L962.9 74.3186M967.37 86.375H1008.52M915.441 51.4688H954.43M915.441 51.4688L913.335 44.6527L912.093 40.6326M915.441 51.4688H876.453M915.441 51.4688L918.908 62.6907M954.43 51.4688L951.403 43.3077L950.907 41.9664L950.412 40.6326M954.43 51.4688L956.491 57.0294L958.589 62.6907M954.43 51.4688H993.417M912.093 40.6326H950.412M912.093 40.6326L910.462 35.3533L909.657 32.7471L909.257 31.4525L908.859 30.1633M912.093 40.6326H873.775M950.412 40.6326H988.731M950.412 40.6326L946.53 30.1633M1486.09 797.177H1401.02M1486.09 797.177L1457.97 746.621M1486.09 797.177H1511.57M1486.09 797.177L1511.57 843.01M1407.51 655.885H1483.85M1407.51 655.885L1384.79 615.02M1407.51 655.885H1331.18M1407.51 655.885L1431.85 699.646M1483.85 655.885L1458.6 615.02M1483.85 655.885L1510.89 699.646M1483.85 655.885H1511.57M1384.79 615.02H1458.6M1384.79 615.02H1310.98M1384.79 615.02L1363.52 576.772M1458.6 615.02L1434.96 576.772M1458.6 615.02H1511.57M1324.82 507.179H1391.96M1324.82 507.179L1307.16 475.434M1324.82 507.179H1257.67M1324.82 507.179L1343.57 540.897M1391.96 507.179L1372.35 475.434M1391.96 507.179L1412.8 540.897M1391.96 507.179H1459.11M1307.16 475.434H1372.35M1307.16 475.434H1241.98M1307.16 475.434L1290.51 445.489M1372.35 475.434L1353.85 445.489M1372.35 475.434H1437.53M1259.89 390.427H1319.82M1259.89 390.427L1245.78 365.056M1259.89 390.427H1199.96M1259.89 390.427L1274.78 417.2M1319.82 390.427L1304.15 365.056M1319.82 390.427L1336.37 417.2M1319.82 390.427H1379.76M1245.78 365.056H1304.15M1245.78 365.056H1187.42M1245.78 365.056L1232.39 340.979M1304.15 365.056L1289.27 340.979M1304.15 365.056H1362.51M1207.56 296.328H1261.68M1207.56 296.328L1196.03 275.589M1207.56 296.328H1153.44M1207.56 296.328L1219.67 318.099M1261.68 296.328L1248.86 275.589M1261.68 296.328L1275.13 318.099M1261.68 296.328H1315.8M1196.03 275.589H1248.86M1196.03 275.589H1143.19M1196.03 275.589L1185.03 255.809M1248.86 275.589L1236.64 255.809M1248.86 275.589H1301.7M1164.49 218.872H1213.82M1164.49 218.872L1154.88 201.604M1164.49 218.872H1115.16M1164.49 218.872L1174.53 236.924M1213.82 218.872L1203.15 201.604M1213.82 218.872L1224.97 236.924M1213.82 218.872H1263.15M1154.88 201.604H1203.15M1154.88 201.604H1106.62M1154.88 201.604L1145.69 185.065M1203.15 201.604L1192.93 185.065M1203.15 201.604H1251.41M1128.41 154.004H1173.74M1128.41 154.004L1120.29 139.401M1128.41 154.004H1083.09M1128.41 154.004L1136.87 169.212M1173.74 154.004L1164.72 139.401M1173.74 154.004L1183.14 169.212M1173.74 154.004H1219.06M1120.29 139.401H1164.72M1120.29 139.401H1075.87M1120.29 139.401L1112.49 125.368M1164.72 139.401L1156.04 125.368M1164.72 139.401H1209.14M1097.76 98.8841H1139.68M1097.76 98.8841L1090.81 86.375M1097.76 98.8841H1055.84M1097.76 98.8841L1099.54 102.084L1100.44 103.698L1104.99 111.872M1139.68 98.8841L1131.95 86.375M1139.68 98.8841L1147.71 111.872M1139.68 98.8841H1181.6M1090.81 86.375H1131.95M1090.81 86.375H1049.66M1090.81 86.375L1084.1 74.3186M1131.95 86.375L1124.5 74.3186M1131.95 86.375H1173.09M1071.39 51.4688H1110.38M1071.39 51.4688L1065.37 40.6326M1071.39 51.4688H1032.41M1071.39 51.4688L1077.63 62.6907M1110.38 51.4688L1105.34 43.3077L1104.51 41.9664L1103.69 40.6326M1110.38 51.4688L1117.32 62.6907M1110.38 51.4688H1149.37M1065.37 40.6326H1103.69M1065.37 40.6326L1060.26 31.4525L1059.55 30.1633M1065.37 40.6326H1027.05M1103.69 40.6326H1142.01M1103.69 40.6326L1097.22 30.1633M1499.62 390.427L1479.24 365.056M1499.62 390.427H1439.69M1499.62 390.427L1511.57 405.309M1499.62 390.427H1511.57M1479.24 365.056H1420.88M1479.24 365.056L1459.9 340.979M1479.24 365.056H1511.57M1424.03 296.328H1478.15M1424.03 296.328L1407.37 275.589M1424.03 296.328H1369.92M1424.03 296.328L1441.52 318.099M1478.15 296.328L1460.21 275.589M1478.15 296.328L1496.98 318.099M1478.15 296.328H1511.57M1407.37 275.589H1460.21M1407.37 275.589H1354.54M1407.37 275.589L1391.49 255.809M1460.21 275.589L1443.1 255.809M1460.21 275.589H1511.57M1361.82 218.872H1411.15M1361.82 218.872L1347.94 201.604M1361.82 218.872H1312.48M1361.82 218.872L1376.32 236.924M1411.15 218.872L1396.21 201.604M1411.15 218.872L1426.76 236.924M1411.15 218.872H1460.48M1347.94 201.604H1396.21M1347.94 201.604H1299.68M1347.94 201.604L1334.66 185.065M1396.21 201.604L1381.9 185.065M1396.21 201.604H1444.47M1309.71 154.004H1355.03M1309.71 154.004L1297.98 139.401M1309.71 154.004H1264.39M1309.71 154.004L1321.93 169.212M1355.03 154.004L1342.4 139.401M1355.03 154.004L1368.19 169.212M1355.03 154.004H1400.36M1297.98 139.401H1342.4M1297.98 139.401H1253.56M1297.98 139.401L1286.71 125.368M1342.4 139.401L1330.26 125.368M1342.4 139.401H1386.82M1265.43 98.8841H1307.35M1265.43 98.8841L1255.39 86.375M1265.43 98.8841H1223.52M1265.43 98.8841L1275.87 111.872M1307.35 98.8841L1296.53 86.375M1307.35 98.8841L1318.59 111.872M1307.35 98.8841H1349.27M1255.39 86.375H1296.53M1255.39 86.375H1214.24M1255.39 86.375L1245.7 74.3186M1296.53 86.375L1286.1 74.3186M1296.53 86.375H1337.68M1227.35 51.4688H1266.34M1227.35 51.4688L1218.64 40.6326M1227.35 51.4688H1188.36M1227.35 51.4688L1236.36 62.6907M1266.34 51.4688L1256.96 40.6326M1266.34 51.4688L1276.04 62.6907M1266.34 51.4688H1305.32M1218.64 40.6326H1256.96M1218.64 40.6326L1210.23 30.1633M1218.64 40.6326H1180.32M1256.96 40.6326H1295.28M1256.96 40.6326L1247.9 30.1633M1491 154.004L1475.66 139.401M1491 154.004H1445.68M1491 154.004L1506.98 169.212M1491 154.004H1511.57M1475.66 139.401H1431.24M1475.66 139.401L1460.92 125.368M1475.66 139.401H1511.57M1433.11 98.8841H1475.02M1433.11 98.8841L1419.97 86.375M1433.11 98.8841H1391.19M1433.11 98.8841L1446.75 111.872M1475.02 98.8841L1461.11 86.375M1475.02 98.8841L1489.47 111.872M1475.02 98.8841H1511.57M1419.97 86.375H1461.11M1419.97 86.375H1378.82M1419.97 86.375L1407.3 74.3186M1461.11 86.375L1447.7 74.3186M1461.11 86.375H1502.25M1383.3 51.4688H1422.29M1383.3 51.4688L1371.92 40.6326M1383.3 51.4688H1344.31M1383.3 51.4688L1395.09 62.6907M1422.29 51.4688L1410.24 40.6326M1422.29 51.4688L1434.77 62.6907M1422.29 51.4688H1461.28M1371.92 40.6326H1410.24M1371.92 40.6326L1360.92 30.1633M1371.92 40.6326H1333.6M1410.24 40.6326H1448.56M1410.24 40.6326L1398.59 30.1633M1434.77 62.6907L1447.7 74.3186M1434.77 62.6907H1474.45M1434.77 62.6907H1395.09M1461.28 51.4688L1448.56 40.6326M1461.28 51.4688L1474.45 62.6907M1461.28 51.4688H1500.26M1448.56 40.6326H1486.87M1448.56 40.6326L1436.26 30.1633M1398.59 30.1633H1360.92M1398.59 30.1633H1436.26M1398.59 30.1633L1387.33 20.0406M1474.45 62.6907L1488.1 74.3186M1474.45 62.6907H1511.57M1500.26 51.4688L1486.87 40.6326M1500.26 51.4688L1511.57 60.6202M1500.26 51.4688H1511.57M1486.87 40.6326L1473.93 30.1633M1486.87 40.6326H1511.57M1436.26 30.1633H1473.93M1436.26 30.1633L1424.38 20.0406M1473.93 30.1633L1461.43 20.0406M1473.93 30.1633H1511.57M1447.7 74.3186H1488.1M1447.7 74.3186H1407.3M1502.25 86.375L1488.1 74.3186M1502.25 86.375L1511.57 94.311M1502.25 86.375H1511.57M1488.1 74.3186H1511.57M1407.3 74.3186H1366.9M1407.3 74.3186L1395.09 62.6907M1395.09 62.6907H1355.41M1489.47 111.872L1504.48 125.368M1489.47 111.872H1446.75M1489.47 111.872H1511.57M1511.7 98.8841H1511.57M1504.48 125.368H1460.92M1504.48 125.368L1511.57 131.747M1504.48 125.368H1511.57M1460.92 125.368H1417.37M1460.92 125.368L1446.75 111.872M1446.75 111.872H1404.03M1276.04 62.6907L1286.1 74.3186M1276.04 62.6907H1315.72M1276.04 62.6907H1236.36M1305.32 51.4688L1295.28 40.6326M1305.32 51.4688L1315.72 62.6907M1305.32 51.4688H1344.31M1295.28 40.6326H1333.6M1295.28 40.6326L1285.58 30.1633M1247.9 30.1633H1285.58M1247.9 30.1633L1239.15 20.0406M1247.9 30.1633H1210.23M1315.72 62.6907L1326.5 74.3186M1315.72 62.6907H1355.41M1344.31 51.4688L1333.6 40.6326M1344.31 51.4688L1355.41 62.6907M1333.6 40.6326L1323.25 30.1633M1285.58 30.1633H1323.25M1285.58 30.1633L1276.19 20.0406M1355.41 62.6907L1366.9 74.3186M1360.92 30.1633H1323.25M1360.92 30.1633L1350.29 20.0406M1323.25 30.1633L1313.24 20.0406M1286.1 74.3186H1326.5M1286.1 74.3186H1245.7M1337.68 86.375L1326.5 74.3186M1337.68 86.375L1349.27 98.8841M1337.68 86.375H1378.82M1326.5 74.3186H1366.9M1245.7 74.3186H1205.3M1245.7 74.3186L1236.36 62.6907M1366.9 74.3186L1378.82 86.375M1236.36 62.6907H1196.68M1349.27 98.8841L1361.31 111.872M1349.27 98.8841H1391.19M1378.82 86.375L1391.19 98.8841M1391.19 98.8841L1404.03 111.872M1318.59 111.872L1330.26 125.368M1318.59 111.872H1361.31M1318.59 111.872H1275.87M1361.31 111.872L1373.82 125.368M1361.31 111.872H1404.03M1404.03 111.872L1417.37 125.368M1330.26 125.368H1373.82M1330.26 125.368H1286.71M1386.82 139.401L1373.82 125.368M1386.82 139.401L1400.36 154.004M1386.82 139.401H1431.24M1373.82 125.368H1417.37M1286.71 125.368H1243.15M1286.71 125.368L1275.87 111.872M1417.37 125.368L1431.24 139.401M1275.87 111.872H1233.15M1400.36 154.004L1414.45 169.212M1400.36 154.004H1445.68M1431.24 139.401L1445.68 154.004M1445.68 154.004L1460.72 169.212M1368.19 169.212L1381.9 185.065M1368.19 169.212H1414.45M1368.19 169.212H1321.93M1414.45 169.212L1429.15 185.065M1414.45 169.212H1460.72M1460.72 169.212L1476.39 185.065M1460.72 169.212H1506.98M1506.98 169.212H1511.57M1506.98 169.212L1511.57 173.585M1381.9 185.065H1429.15M1381.9 185.065H1334.66M1444.47 201.604L1429.15 185.065M1444.47 201.604L1460.48 218.872M1444.47 201.604H1492.74M1429.15 185.065H1476.39M1334.66 185.065H1287.42M1334.66 185.065L1321.93 169.212M1476.39 185.065L1492.74 201.604M1476.39 185.065H1511.57M1321.93 169.212H1275.66M1460.48 218.872L1477.21 236.924M1460.48 218.872H1509.81M1492.74 201.604L1509.81 218.872M1492.74 201.604H1511.57M1511.82 185.065H1511.57M1509.81 218.872L1511.57 220.655M1509.81 218.872H1511.57M1426.76 236.924L1443.1 255.809M1426.76 236.924H1477.21M1426.76 236.924H1376.32M1477.21 236.924L1494.71 255.809M1477.21 236.924H1511.57M1512 221.086L1511.57 220.655M1443.1 255.809H1494.71M1443.1 255.809H1391.49M1494.71 255.809H1511.57M1494.71 255.809L1511.57 273.999M1391.49 255.809H1339.87M1391.49 255.809L1376.32 236.924M1376.32 236.924H1325.87M1496.98 318.099H1441.52M1496.98 318.099L1511.57 334.964M1496.98 318.099H1511.57M1511.98 296.328H1511.57M1441.52 318.099H1386.06M1441.52 318.099L1459.9 340.979M1511.73 335.15L1511.57 334.964M1117.32 62.6907L1124.5 74.3186M1117.32 62.6907H1157M1117.32 62.6907H1077.63M1149.37 51.4688L1142.01 40.6326M1149.37 51.4688L1157 62.6907M1149.37 51.4688H1188.36M1142.01 40.6326H1180.32M1142.01 40.6326L1134.89 30.1633M1097.22 30.1633H1134.89M1097.22 30.1633L1094.85 26.3277L1090.96 20.0406M1097.22 30.1633H1059.55M1157 62.6907L1164.9 74.3186M1157 62.6907H1196.68M1188.36 51.4688L1180.32 40.6326M1188.36 51.4688L1196.68 62.6907M1180.32 40.6326L1172.56 30.1633M1134.89 30.1633H1172.56M1134.89 30.1633L1128.01 20.0406M1196.68 62.6907L1205.3 74.3186M1210.23 30.1633L1202.1 20.0406M1210.23 30.1633H1172.56M1172.56 30.1633L1171.61 28.878L1169.72 26.3277L1165.06 20.0406M1124.5 74.3186H1164.9M1124.5 74.3186H1084.1M1173.09 86.375L1164.9 74.3186M1173.09 86.375L1181.6 98.8841M1173.09 86.375H1214.24M1164.9 74.3186H1205.3M1084.1 74.3186H1043.7M1084.1 74.3186L1077.63 62.6907M1205.3 74.3186L1214.24 86.375M1077.63 62.6907H1037.95M1181.6 98.8841L1190.43 111.872M1181.6 98.8841H1223.52M1214.24 86.375L1215.38 87.9119L1223.52 98.8841M1223.52 98.8841L1233.15 111.872M1147.71 111.872L1148.73 113.532L1156.04 125.368M1147.71 111.872H1190.43M1147.71 111.872H1104.99M1190.43 111.872L1199.6 125.368M1190.43 111.872H1233.15M1233.15 111.872L1243.15 125.368M1156.04 125.368H1199.6M1156.04 125.368H1112.49M1209.14 139.401L1199.6 125.368M1209.14 139.401L1219.06 154.004M1209.14 139.401H1253.56M1199.6 125.368H1243.15M1112.49 125.368H1068.94M1112.49 125.368L1104.99 111.872M1243.15 125.368L1253.56 139.401M1104.99 111.872H1062.26M1219.06 154.004L1229.4 169.212M1219.06 154.004H1264.39M1253.56 139.401L1264.39 154.004M1264.39 154.004L1275.66 169.212M1183.14 169.212L1192.93 185.065M1183.14 169.212H1229.4M1183.14 169.212H1136.87M1229.4 169.212L1240.17 185.065M1229.4 169.212H1275.66M1275.66 169.212L1287.42 185.065M1192.93 185.065H1240.17M1192.93 185.065H1145.69M1251.41 201.604L1240.17 185.065M1251.41 201.604L1263.15 218.872M1251.41 201.604H1299.68M1240.17 185.065H1287.42M1145.69 185.065H1098.44M1145.69 185.065L1136.87 169.212M1287.42 185.065L1299.68 201.604M1136.87 169.212H1090.61M1263.15 218.872L1275.42 236.924M1263.15 218.872H1312.48M1299.68 201.604L1312.48 218.872M1312.48 218.872L1325.87 236.924M1224.97 236.924L1236.64 255.809M1224.97 236.924H1275.42M1224.97 236.924H1174.53M1275.42 236.924L1288.26 255.809M1275.42 236.924H1325.87M1325.87 236.924L1339.87 255.809M1236.64 255.809H1288.26M1236.64 255.809H1185.03M1301.7 275.589L1288.26 255.809M1301.7 275.589L1315.8 296.328M1301.7 275.589H1354.54M1288.26 255.809H1339.87M1185.03 255.809H1133.41M1185.03 255.809L1174.53 236.924M1339.87 255.809L1354.54 275.589M1174.53 236.924H1124.08M1315.8 296.328L1330.59 318.099M1315.8 296.328H1369.92M1354.54 275.589L1369.92 296.328M1369.92 296.328L1386.06 318.099M1275.13 318.099L1289.27 340.979M1275.13 318.099H1330.59M1275.13 318.099H1219.67M1330.59 318.099L1346.15 340.979M1330.59 318.099H1386.06M1386.06 318.099L1403.02 340.979M1289.27 340.979H1346.15M1289.27 340.979H1232.39M1362.51 365.056L1346.15 340.979M1362.51 365.056L1379.76 390.427M1362.51 365.056H1420.88M1346.15 340.979H1403.02M1232.39 340.979H1175.51M1232.39 340.979L1219.67 318.099M1403.02 340.979L1420.88 365.056M1403.02 340.979H1459.9M1219.67 318.099H1164.21M1379.76 390.427L1397.95 417.2M1379.76 390.427H1439.69M1420.88 365.056L1439.69 390.427M1459.9 340.979H1511.57M1439.69 390.427L1459.54 417.2M1336.37 417.2L1353.85 445.489M1336.37 417.2H1397.95M1336.37 417.2H1274.78M1397.95 417.2L1417.18 445.489M1397.95 417.2H1459.54M1459.54 417.2L1480.51 445.489M1459.54 417.2H1511.57M1353.85 445.489H1417.18M1353.85 445.489H1290.51M1437.53 475.434L1417.18 445.489M1437.53 475.434L1459.11 507.179M1437.53 475.434H1502.72M1417.18 445.489H1480.51M1290.51 445.489H1227.18M1290.51 445.489L1274.78 417.2M1480.51 445.489L1502.72 475.434M1480.51 445.489H1511.57M1274.78 417.2H1213.19M1459.11 507.179L1482.03 540.897M1459.11 507.179H1511.57M1502.72 475.434H1511.57M1502.72 475.434L1511.57 487.378M1412.8 540.897L1434.96 576.772M1412.8 540.897H1482.03M1412.8 540.897H1343.57M1482.03 540.897L1506.41 576.772M1482.03 540.897H1511.57M1434.96 576.772H1506.41M1434.96 576.772H1363.52M1506.41 576.772L1511.57 584.369M1506.41 576.772H1511.57M1363.52 576.772H1292.07M1363.52 576.772L1343.57 540.897M1343.57 540.897H1274.34M1510.89 699.646H1431.85M1510.89 699.646H1511.57M1510.89 699.646L1511.57 700.757M1431.85 699.646H1352.81M1431.85 699.646L1457.97 746.621M958.589 62.6907L960.188 67.0013L960.725 68.4525L962.9 74.3186M958.589 62.6907H998.271M958.589 62.6907H918.908M993.417 51.4688L989.887 43.3077L988.731 40.6326M993.417 51.4688L997.655 61.2656L998.271 62.6907M993.417 51.4688H1032.41M988.731 40.6326H1027.05M988.731 40.6326L984.202 30.1633M946.53 30.1633H984.202M946.53 30.1633L945.108 26.3277L942.778 20.0406M946.53 30.1633H908.859M998.271 62.6907L999.512 65.5576L1003.3 74.3186M998.271 62.6907H1037.95M1032.41 51.4688L1027.05 40.6326M1032.41 51.4688L1037.95 62.6907M1027.05 40.6326L1023.15 32.7471L1021.87 30.1633M984.202 30.1633H1021.87M984.202 30.1633L979.824 20.0406M1037.95 62.6907L1043.7 74.3186M1059.55 30.1633L1058.83 28.878L1053.92 20.0406M1059.55 30.1633H1021.87M1021.87 30.1633L1019.98 26.3277L1016.87 20.0406M962.9 74.3186H1003.3M962.9 74.3186H922.5M1008.52 86.375L1003.3 74.3186M1008.52 86.375L1013.93 98.8841M1008.52 86.375H1049.66M1003.3 74.3186H1043.7M922.5 74.3186H882.1M922.5 74.3186L918.908 62.6907M1043.7 74.3186L1049.66 86.375M918.908 62.6907H879.226M1013.93 98.8841L1017.41 106.945L1018.12 108.578L1019.54 111.872M1013.93 98.8841H1055.84M1049.66 86.375L1055.84 98.8841M1055.84 98.8841L1062.26 111.872M976.823 111.872L981.826 125.368M976.823 111.872H1019.54M976.823 111.872H934.102M1019.54 111.872L1025.38 125.368M1019.54 111.872H1062.26M1062.26 111.872L1068.94 125.368M981.826 125.368H1025.38M981.826 125.368H938.272M1031.45 139.401L1027.63 130.566L1026.88 128.824L1025.38 125.368M1031.45 139.401L1037.77 154.004M1031.45 139.401H1075.87M1025.38 125.368H1068.94M938.272 125.368H894.718M938.272 125.368L934.102 111.872M1068.94 125.368L1075.87 139.401M934.102 111.872H891.382M1037.77 154.004L1044.35 169.212M1037.77 154.004H1083.09M1075.87 139.401L1083.09 154.004M1083.09 154.004L1090.61 169.212M998.081 169.212L1000.99 177.055L1001.73 179.043L1003.96 185.065M998.081 169.212H1044.35M998.081 169.212H951.817M1044.35 169.212L1051.2 185.065M1044.35 169.212H1090.61M1090.61 169.212L1098.44 185.065M1003.96 185.065H1051.2M1003.96 185.065H956.715M1058.35 201.604L1051.2 185.065M1058.35 201.604L1065.82 218.872M1058.35 201.604H1106.62M1051.2 185.065H1098.44M956.715 185.065H909.472M956.715 185.065L955.471 181.04L951.817 169.212M1098.44 185.065L1106.62 201.604M951.817 169.212H905.554M1065.82 218.872L1073.63 236.924M1065.82 218.872H1115.16M1106.62 201.604L1115.16 218.872M1115.16 218.872L1124.08 236.924M1023.18 236.924L1030.19 255.809M1023.18 236.924H1073.63M1023.18 236.924H972.736M1073.63 236.924L1081.8 255.809M1073.63 236.924H1124.08M1124.08 236.924L1133.41 255.809M1030.19 255.809H1081.8M1030.19 255.809H978.571M1090.36 275.589L1081.8 255.809M1090.36 275.589L1099.33 296.328M1090.36 275.589H1143.19M1081.8 255.809H1133.41M978.571 255.809H926.957M978.571 255.809L972.736 236.924M1133.41 255.809L1143.19 275.589M972.736 236.924H922.29M1099.33 296.328L1108.74 318.099M1099.33 296.328H1153.44M1143.19 275.589L1153.44 296.328M1153.44 296.328L1164.21 318.099M1053.28 318.099L1061.76 340.979M1053.28 318.099H1108.74M1053.28 318.099H997.816M1108.74 318.099L1118.64 340.979M1108.74 318.099H1164.21M1164.21 318.099L1175.51 340.979M1061.76 340.979H1118.64M1061.76 340.979H1004.88M1129.05 365.056L1118.64 340.979M1129.05 365.056L1140.03 390.427M1129.05 365.056H1187.42M1118.64 340.979H1175.51M1004.88 340.979H948.008M1004.88 340.979L997.816 318.099M1175.51 340.979L1187.42 365.056M997.816 318.099H942.353M1140.03 390.427L1151.61 417.2M1140.03 390.427H1199.96M1187.42 365.056L1199.96 390.427M1199.96 390.427L1213.19 417.2M1090.02 417.2L1100.51 445.489M1090.02 417.2H1151.61M1090.02 417.2H1028.43M1151.61 417.2L1163.84 445.489M1151.61 417.2H1213.19M1213.19 417.2L1227.18 445.489M1100.51 445.489H1163.84M1100.51 445.489H1037.17M1176.79 475.434L1163.84 445.489M1176.79 475.434L1190.52 507.179M1176.79 475.434H1241.98M1163.84 445.489H1227.18M1037.17 445.489H973.838M1037.17 445.489L1028.43 417.2M1227.18 445.489L1241.98 475.434M1028.43 417.2H966.846M1190.52 507.179L1205.11 540.897M1190.52 507.179H1257.67M1241.98 475.434L1257.67 507.179M1257.67 507.179L1274.34 540.897M1135.88 540.897L1149.18 576.772M1135.88 540.897H1205.11M1135.88 540.897H1066.65M1205.11 540.897L1220.62 576.772M1205.11 540.897H1274.34M1274.34 540.897L1292.07 576.772M1149.18 576.772H1220.62M1149.18 576.772H1077.73M1237.17 615.02L1220.62 576.772M1237.17 615.02L1254.84 655.885M1237.17 615.02H1310.98M1220.62 576.772H1292.07M1077.73 576.772H1006.29M1077.73 576.772L1066.65 540.897M1292.07 576.772L1310.98 615.02M1066.65 540.897H997.419M1254.84 655.885L1273.77 699.646M1254.84 655.885H1331.18M1310.98 615.02L1331.18 655.885M1331.18 655.885L1352.81 699.646M1194.73 699.646L1212.15 746.621M1194.73 699.646H1273.77M1194.73 699.646H1115.69M1273.77 699.646L1294.09 746.621M1273.77 699.646H1352.81M1352.81 699.646L1376.03 746.621M1212.15 746.621H1294.09M1212.15 746.621H1130.21M1315.96 797.177L1294.09 746.621M1315.96 797.177L1339.56 851.742M1315.96 797.177H1401.02M1294.09 746.621H1376.03M1130.21 746.621H1048.27M1130.21 746.621L1115.69 699.646M1376.03 746.621L1401.02 797.177M1376.03 746.621H1457.97M1115.69 699.646H1036.66M1339.56 851.742L1365.11 910.81M1339.56 851.742H1427.99M1401.02 797.177L1427.99 851.742M1457.97 746.621H1511.57M1427.99 851.742L1457.19 910.81M1427.99 851.742H1511.57M1273.02 910.81L1296.8 974.963M1273.02 910.81H1365.11M1273.02 910.81H1180.93M1365.11 910.81L1392.85 974.963M1365.11 910.81H1457.19M1457.19 910.81L1488.9 974.963M1457.19 910.81H1511.57M1296.8 974.963H1392.85M1296.8 974.963H1200.75M1423.1 1044.89L1392.85 974.963M1423.1 1044.89L1456.19 1121.4M1423.1 1044.89H1511.57M1392.85 974.963H1488.9M1200.75 974.963H1104.7M1200.75 974.963L1180.93 910.81M1488.9 974.963H1511.57M1488.9 974.963L1511.57 1020.83M1180.93 910.81H1088.85M1456.19 1121.4L1492.56 1205.47M1456.19 1121.4H1511.57M1382.26 1205.47L1416.67 1298.29M1382.26 1205.47H1492.56M1382.26 1205.47H1271.97M1492.56 1205.47L1511.57 1249.45M1492.56 1205.47H1511.57M1416.67 1298.29H1300.64M1416.67 1298.29L1511.57 1298.29M1300.64 1298.29H1184.62M1300.64 1298.29L1271.97 1205.47M1271.97 1205.47H1161.67M799.863 62.6907L800.04 64.1213L800.217 65.5576L800.396 67.0013L800.575 68.4525L801.118 72.8414L801.3 74.3186M799.863 62.6907H839.545M799.863 62.6907H760.181M837.464 51.4688L835.951 43.3077L835.456 40.6326M837.464 51.4688L838.757 58.4359L839.545 62.6907M837.464 51.4688H876.453M835.456 40.6326H873.775M835.456 40.6326L833.994 32.7471L833.515 30.1633M795.843 30.1633L795.685 28.878L795.057 23.7961L794.592 20.0406M795.843 30.1633H833.515M795.843 30.1633H758.172M839.545 62.6907L839.81 64.1213L840.077 65.5576L840.344 67.0013L840.613 68.4525L841.7 74.3186M839.545 62.6907H879.226M876.453 51.4688L874.436 43.3077L873.775 40.6326M876.453 51.4688L879.226 62.6907M873.775 40.6326L872.469 35.3533L871.505 31.4525L871.187 30.1633M833.515 30.1633L833.277 28.878L832.804 26.3277L832.335 23.7961L832.102 22.5387L831.638 20.0406M833.515 30.1633H871.187M879.226 62.6907L881.372 71.3716L882.1 74.3186M908.859 30.1633L906.504 22.5387L905.732 20.0406M908.859 30.1633H871.187M871.187 30.1633L868.994 21.2869L868.685 20.0406M801.3 74.3186H841.7M801.3 74.3186H760.9M843.935 86.375L841.7 74.3186M843.935 86.375L846.254 98.8841M843.935 86.375H885.08M841.7 74.3186H882.1M760.9 74.3186H720.5M760.9 74.3186L760.181 62.6907M882.1 74.3186L885.08 86.375M760.181 62.6907H720.5M846.254 98.8841L846.848 102.084L847.748 106.945L848.661 111.872M846.254 98.8841H888.172M885.08 86.375L885.46 87.9119L888.172 98.8841M888.172 98.8841L888.566 100.481L888.963 102.084L889.361 103.698L891.382 111.872M805.941 111.872L807.609 125.368M805.941 111.872H848.661M805.941 111.872H763.221M848.661 111.872L851.163 125.368M848.661 111.872H891.382M891.382 111.872L893.871 121.944L894.294 123.653L894.718 125.368M807.609 125.368H851.163M807.609 125.368H764.054M853.765 139.401L854.097 141.195L854.431 142.997L854.767 144.809L856.472 154.004M853.765 139.401L852.451 132.315L852.126 130.566L851.804 128.824L851.163 125.368M853.765 139.401H898.186M851.163 125.368H894.718M764.054 125.368H720.5M764.054 125.368L763.221 111.872M894.718 125.368L898.186 139.401M763.221 111.872H720.5M856.472 154.004L858.932 167.277L859.291 169.212M856.472 154.004H901.795M898.186 139.401L899.075 142.997L901.795 154.004M901.795 154.004L903.187 159.634L905.554 169.212M813.027 169.212L813.997 177.055L814.242 179.043L814.986 185.065M813.027 169.212H859.291M813.027 169.212H766.764M859.291 169.212L862.229 185.065M859.291 169.212H905.554M905.554 169.212L909.472 185.065M814.986 185.065H862.229M814.986 185.065H767.743M865.295 201.604L862.229 185.065M865.295 201.604L868.496 218.872M865.295 201.604H913.56M862.229 185.065H909.472M767.743 185.065H720.5M767.743 185.065L767.494 181.04L767.005 173.113L766.764 169.212M909.472 185.065L913.56 201.604M766.764 169.212H720.5M868.496 218.872L870.991 232.335L871.842 236.924M868.496 218.872H917.828M913.56 201.604L917.828 218.872M917.828 218.872L920.034 227.797L922.29 236.924M821.395 236.924L823.729 255.809M821.395 236.924H871.842M821.395 236.924H770.947M871.842 236.924L875.343 255.809M871.842 236.924H922.29M922.29 236.924L926.957 255.809M823.729 255.809H875.343M823.729 255.809H772.114M879.01 275.589L878.076 270.557L875.343 255.809M879.01 275.589L882.854 296.328M879.01 275.589H931.846M875.343 255.809H926.957M772.114 255.809H720.5M772.114 255.809L770.947 236.924M926.957 255.809L931.846 275.589M770.947 236.924H720.5M882.854 296.328L886.889 318.099M882.854 296.328H936.972M931.846 275.589L936.972 296.328M936.972 296.328L942.353 318.099M831.427 318.099L834.254 340.979M831.427 318.099H886.889M831.427 318.099H775.963M886.889 318.099L891.131 340.979M886.889 318.099H942.353M942.353 318.099L948.008 340.979M834.254 340.979H891.131M834.254 340.979H777.377M895.594 365.056L891.131 340.979M895.594 365.056L900.297 390.427M895.594 365.056H953.958M891.131 340.979H948.008M777.377 340.979H720.5M777.377 340.979L776.136 320.897L775.963 318.099M948.008 340.979L953.958 365.056M775.963 318.099H720.5M900.297 390.427L905.259 417.2M900.297 390.427H960.229M953.958 365.056L958.63 383.959L960.229 390.427M960.229 390.427L966.846 417.2M843.673 417.2L847.169 445.489M843.673 417.2H905.259M843.673 417.2H782.087M905.259 417.2L910.504 445.489M905.259 417.2H966.846M966.846 417.2L973.838 445.489M847.169 445.489H910.504M847.169 445.489H783.835M916.054 475.434L910.504 445.489M916.054 475.434L921.939 507.179M916.054 475.434H981.239M910.504 445.489H973.838M783.835 445.489H720.5M783.835 445.489L782.087 417.2M973.838 445.489L981.239 475.434M782.087 417.2H720.5M921.939 507.179L928.189 540.897M921.939 507.179H989.085M981.239 475.434L989.085 507.179M989.085 507.179L997.419 540.897M858.959 540.897L863.393 576.772M858.959 540.897H928.189M858.959 540.897H789.73M928.189 540.897L934.839 576.772M928.189 540.897H997.419M997.419 540.897L1006.29 576.772M863.393 576.772H934.839M863.393 576.772H791.946M941.929 615.02L934.839 576.772M941.929 615.02L949.504 655.885M941.929 615.02H1015.74M934.839 576.772H1006.29M791.946 576.772H720.5M791.946 576.772L789.73 540.897M1006.29 576.772L1015.74 615.02M789.73 540.897H720.5M949.504 655.885L957.616 699.646M949.504 655.885H1025.84M1015.74 615.02L1025.84 655.885M1025.84 655.885L1036.66 699.646M878.577 699.646L884.383 746.621M878.577 699.646H957.616M878.577 699.646H799.539M957.616 699.646L966.324 746.621M957.616 699.646H1036.66M1036.66 699.646L1048.27 746.621M884.383 746.621H966.324M884.383 746.621H802.441M975.695 797.177L966.324 746.621M975.695 797.177L985.81 851.742M975.695 797.177H1060.76M966.324 746.621H1048.27M802.441 746.621H720.5M802.441 746.621L799.539 699.646M1048.27 746.621L1060.76 797.177M799.539 699.646H720.5M985.81 851.742L996.759 910.81M985.81 851.742H1074.25M1060.76 797.177L1074.25 851.742M1074.25 851.742L1088.85 910.81M904.673 910.81L912.601 974.963M904.673 910.81H996.759M904.673 910.81H812.587M996.759 910.81L1008.65 974.963M996.759 910.81H1088.85M1088.85 910.81L1104.7 974.963M912.601 974.963H1008.65M912.601 974.963H816.55M1021.61 1044.89L1008.65 974.963M1021.61 1044.89L1035.8 1121.4M1021.61 1044.89H1121.98M1008.65 974.963H1104.7M816.55 974.963H720.5M816.55 974.963L812.587 910.81M1104.7 974.963L1121.98 1044.89M812.587 910.81H720.5M1035.8 1121.4L1051.38 1205.47M1035.8 1121.4H1140.89M1121.98 1044.89L1140.89 1121.4M1140.89 1121.4L1161.67 1205.47M941.087 1205.47L952.557 1298.29M941.087 1205.47H1051.38M941.087 1205.47H830.794M1051.38 1205.47L1068.59 1298.29M1051.38 1205.47H1161.67M1161.67 1205.47L1184.62 1298.29M1068.59 1298.29H952.557M1068.59 1298.29H1184.62M952.557 1298.29H836.529M836.529 1298.29H720.5M836.529 1298.29L830.794 1205.47M830.794 1205.47H720.5M641.137 62.6907L640.96 64.1213L640.783 65.5576L640.604 67.0013L640.425 68.4525L640.064 71.3716L639.882 72.8414L639.7 74.3186M641.137 62.6907H680.819M641.137 62.6907H601.455M681.512 51.4688L682.182 40.6326M681.512 51.4688L680.819 62.6907M681.512 51.4688H720.5M682.182 40.6326L682.263 39.3044L682.346 37.9817L682.426 36.6647L682.828 30.1633M682.182 40.6326H720.5M645.157 30.1633L645.315 28.878L645.943 23.7961L646.408 20.0406M645.157 30.1633H682.828M645.157 30.1633H607.485M680.819 62.6907L680.73 64.1213L680.641 65.5576L680.552 67.0013L680.1 74.3186M680.819 62.6907H720.5M720.5 51.4688V40.6326M720.5 51.4688V62.6907M720.5 40.6326V30.1633M682.828 30.1633H720.5M682.828 30.1633L683.065 26.3277L683.144 25.0591L683.454 20.0406M720.5 62.6907V74.3186M758.172 30.1633L757.935 26.3277L757.856 25.0591L757.779 23.7961L757.7 22.5387L757.624 21.2869L757.546 20.0406M758.172 30.1633H720.5M720.5 30.1633V20.0406M639.7 74.3186H680.1M639.7 74.3186H599.3M679.355 86.375L679.26 87.9119L679.165 89.4581L678.582 98.8841M679.355 86.375L680.1 74.3186M679.355 86.375H720.5M680.1 74.3186H720.5M599.3 74.3186H558.9M599.3 74.3186L599.846 71.3716L600.118 69.9092L600.387 68.4525L600.656 67.0013L600.923 65.5576L601.19 64.1213L601.455 62.6907M720.5 74.3186V86.375M601.455 62.6907H561.774M678.582 98.8841L677.78 111.872M678.582 98.8841H720.5M720.5 86.375V98.8841M720.5 98.8841V111.872M635.059 111.872L633.391 125.368M635.059 111.872H677.78M635.059 111.872H592.339M677.78 111.872L676.946 125.368M677.78 111.872H720.5M720.5 111.872V125.368M633.391 125.368H676.946M633.391 125.368H589.837M676.079 139.401L676.946 125.368M676.079 139.401L675.176 154.004M676.079 139.401H720.5M676.946 125.368H720.5M589.837 125.368H546.282M589.837 125.368L592.339 111.872M720.5 125.368V139.401M592.339 111.872H549.618M675.176 154.004L674.829 159.634L674.475 165.351L674.236 169.212M675.176 154.004H720.5M720.5 139.401V154.004M720.5 154.004V169.212M627.973 169.212L627.003 177.055L626.759 179.043L626.014 185.065M627.973 169.212H674.236M627.973 169.212H581.709M674.236 169.212L673.996 173.113L673.506 181.04L673.257 185.065M674.236 169.212H720.5M720.5 169.212V185.065M626.014 185.065H673.257M626.014 185.065H578.771M672.235 201.604L672.365 199.497L673.257 185.065M672.235 201.604L671.168 218.872M672.235 201.604H720.5M673.257 185.065H720.5M578.771 185.065H531.528M578.771 185.065L581.709 169.212M720.5 185.065V201.604M581.709 169.212H535.446M671.168 218.872L670.053 236.924M671.168 218.872H720.5M720.5 201.604V218.872M720.5 218.872V236.924M619.605 236.924L617.271 255.809M619.605 236.924H670.053M619.605 236.924H569.158M670.053 236.924L668.886 255.809M670.053 236.924H720.5M720.5 236.924V255.809M617.271 255.809H668.886M617.271 255.809H565.657M667.664 275.589L668.886 255.809M667.664 275.589L666.382 296.328M667.664 275.589H720.5M668.886 255.809H720.5M565.657 255.809H514.043M565.657 255.809L569.158 236.924M720.5 255.809V275.589M569.158 236.924H518.71M666.382 296.328L665.037 318.099M666.382 296.328H720.5M720.5 275.589V296.328M720.5 296.328V318.099M609.573 318.099L606.746 340.979M609.573 318.099H665.037M609.573 318.099H554.111M665.037 318.099L663.623 340.979M665.037 318.099H720.5M720.5 318.099V340.979M606.746 340.979H663.623M606.746 340.979H549.869M662.135 365.056L663.623 340.979M662.135 365.056L660.568 390.427M662.135 365.056H720.5M663.623 340.979H720.5M549.869 340.979H492.992M549.869 340.979L554.111 318.099M720.5 340.979V365.056M554.111 318.099H498.647M660.568 390.427L658.913 417.2M660.568 390.427H720.5M720.5 365.056V390.427M720.5 390.427V417.2M597.327 417.2L593.831 445.489M597.327 417.2H658.913M597.327 417.2H535.741M658.913 417.2L657.165 445.489M658.913 417.2H720.5M720.5 417.2V445.489M593.831 445.489H657.165M593.831 445.489H530.496M655.316 475.434L657.165 445.489M655.316 475.434L653.354 507.179M655.316 475.434H720.5M657.165 445.489H720.5M530.496 445.489H467.162M530.496 445.489L535.741 417.2M720.5 445.489V475.434M535.741 417.2H474.154M653.354 507.179L651.27 540.897M653.354 507.179H720.5M720.5 475.434V507.179M720.5 507.179V540.897M582.041 540.897L577.607 576.772M582.041 540.897H651.27M582.041 540.897H512.811M651.27 540.897L649.054 576.772M651.27 540.897H720.5M720.5 540.897V576.772M577.607 576.772H649.054M577.607 576.772H506.161M646.69 615.02L649.054 576.772M646.69 615.02L644.166 655.885M646.69 615.02H720.5M649.054 576.772H720.5M506.161 576.772H434.715M506.161 576.772L512.811 540.897M720.5 576.772V615.02M512.811 540.897H443.581M644.166 655.885L641.461 699.646M644.166 655.885H720.5M720.5 615.02V655.885M720.5 655.885V699.646M562.423 699.646L556.618 746.621M562.423 699.646H641.461M562.423 699.646H483.384M641.461 699.646L638.559 746.621M641.461 699.646H720.5M720.5 699.646V746.621M556.618 746.621H638.559M556.618 746.621H474.676M635.435 797.177L638.559 746.621M635.435 797.177L632.064 851.742M635.435 797.177H720.5M638.559 746.621H720.5M474.676 746.621H392.735M474.676 746.621L483.384 699.646M720.5 746.621V797.177M483.384 699.646H404.345M632.064 851.742L628.413 910.81M632.064 851.742H720.5M720.5 797.177V851.742M720.5 851.742V910.81M536.327 910.81L528.399 974.963M536.327 910.81H628.413M536.327 910.81H444.241M628.413 910.81L624.45 974.963M628.413 910.81H720.5M720.5 910.81V974.963M528.399 974.963H624.45M528.399 974.963H432.349M620.129 1044.89L624.45 974.963M620.129 1044.89L615.402 1121.4M620.129 1044.89H720.5M624.45 974.963H720.5M432.349 974.963H336.298M432.349 974.963L444.241 910.81M720.5 974.963V1044.89M444.241 910.81H352.155M615.402 1121.4L610.206 1205.47M615.402 1121.4H720.5M720.5 1044.89V1121.4M720.5 1121.4V1205.47M499.913 1205.47L488.443 1298.29M499.913 1205.47H610.206M499.913 1205.47H389.619M610.206 1205.47L604.471 1298.29M610.206 1205.47H720.5M720.5 1205.47V1298.29M604.471 1298.29H488.443M604.471 1298.29H720.5M488.443 1298.29H372.413M372.413 1298.29H256.384M372.413 1298.29L389.619 1205.47M389.619 1205.47H279.325M482.411 62.6907L480.275 68.4525L478.1 74.3186M482.411 62.6907H522.092M482.411 62.6907H442.729M525.559 51.4688L528.907 40.6326M525.559 51.4688L522.092 62.6907M525.559 51.4688H564.547M528.907 40.6326H567.225M528.907 40.6326L531.343 32.7471L532.141 30.1633M494.47 30.1633H532.141M494.47 30.1633L495.892 26.3277L498.222 20.0406M494.47 30.1633H456.798M522.092 62.6907L518.5 74.3186M522.092 62.6907H561.774M564.547 51.4688L567.225 40.6326M564.547 51.4688L561.774 62.6907M567.225 40.6326L568.531 35.3533L569.495 31.4525L569.813 30.1633M532.141 30.1633H569.813M532.141 30.1633L534.496 22.5387L535.268 20.0406M561.774 62.6907L559.628 71.3716L558.9 74.3186M607.485 30.1633L607.723 28.878L608.196 26.3277L608.898 22.5387L609.362 20.0406M607.485 30.1633H569.813M569.813 30.1633L570.13 28.878L570.761 26.3277L572.315 20.0406M478.1 74.3186H518.5M478.1 74.3186H437.699M514.775 86.375L515.248 84.8437L515.719 83.3181L517.581 77.2899L518.5 74.3186M514.775 86.375L511.89 95.7117L510.91 98.8841M514.775 86.375H555.92M518.5 74.3186H558.9M437.699 74.3186H397.299M437.699 74.3186L441.488 65.5576L442.729 62.6907M558.9 74.3186L555.92 86.375M442.729 62.6907H403.047M510.91 98.8841L510.417 100.481L509.921 102.084L508.421 106.945L507.915 108.578L506.898 111.872M510.91 98.8841H552.828M555.92 86.375L555.54 87.9119L552.828 98.8841M552.828 98.8841L552.434 100.481L552.037 102.084L551.639 103.698L549.618 111.872M464.177 111.872L459.174 125.368M464.177 111.872H506.898M464.177 111.872H421.457M506.898 111.872L502.728 125.368M506.898 111.872H549.618M549.618 111.872L546.282 125.368M459.174 125.368H502.728M459.174 125.368H415.619M498.393 139.401L502.728 125.368M498.393 139.401L493.881 154.004M498.393 139.401H542.814M502.728 125.368H546.282M415.619 125.368H372.065M415.619 125.368L421.457 111.872M546.282 125.368L542.814 139.401M421.457 111.872H378.735M493.881 154.004L489.183 169.212M493.881 154.004H539.205M542.814 139.401L541.925 142.997L539.205 154.004M539.205 154.004L537.813 159.634L536.4 165.351L535.446 169.212M442.919 169.212L440.011 177.055L437.042 185.065M442.919 169.212H489.183M442.919 169.212H396.655M489.183 169.212L484.285 185.065M489.183 169.212H535.446M535.446 169.212L531.528 185.065M437.042 185.065H484.285M437.042 185.065H389.799M479.176 201.604L484.285 185.065M479.176 201.604L473.84 218.872M479.176 201.604H527.44M484.285 185.065H531.528M389.799 185.065H342.555M389.799 185.065L396.655 169.212M531.528 185.065L527.44 201.604M396.655 169.212H350.392M473.84 218.872L472.469 223.31L468.264 236.924M473.84 218.872H523.172M527.44 201.604L523.172 218.872M523.172 218.872L522.625 221.086L520.966 227.797L518.71 236.924M417.816 236.924L410.814 255.809M417.816 236.924H468.264M417.816 236.924H367.369M468.264 236.924L462.429 255.809M468.264 236.924H518.71M518.71 236.924L514.043 255.809M410.814 255.809H462.429M410.814 255.809H359.2M456.318 275.589L460.171 263.119L462.429 255.809M456.318 275.589L449.91 296.328M456.318 275.589H509.154M462.429 255.809H514.043M359.2 255.809H307.586M359.2 255.809L367.369 236.924M514.043 255.809L509.154 275.589M367.369 236.924H316.921M449.91 296.328L443.184 318.099M449.91 296.328H504.028M509.154 275.589L504.028 296.328M504.028 296.328L498.647 318.099M387.721 318.099L379.238 340.979M387.721 318.099H443.184M387.721 318.099H332.258M443.184 318.099L436.116 340.979M443.184 318.099H498.647M498.647 318.099L492.992 340.979M379.238 340.979H436.116M379.238 340.979H322.362M428.677 365.056L436.116 340.979M428.677 365.056L420.839 390.427M428.677 365.056H487.042M436.116 340.979H492.992M322.362 340.979H265.485M322.362 340.979L332.258 318.099M492.992 340.979L487.042 365.056M332.258 318.099H276.795M420.839 390.427L412.568 417.2M420.839 390.427H480.771M487.042 365.056L480.771 390.427M480.771 390.427L474.154 417.2M350.981 417.2L340.493 445.489M350.981 417.2H412.568M350.981 417.2H289.394M412.568 417.2L403.827 445.489M412.568 417.2H474.154M474.154 417.2L467.162 445.489M340.493 445.489H403.827M340.493 445.489H277.158M394.576 475.434L403.827 445.489M394.576 475.434L384.768 507.179M394.576 475.434H459.761M403.827 445.489H467.162M277.158 445.489H213.824M277.158 445.489L289.394 417.2M467.162 445.489L459.761 475.434M289.394 417.2H227.808M384.768 507.179L374.352 540.897M384.768 507.179H451.915M459.761 475.434L451.915 507.179M451.915 507.179L443.581 540.897M305.122 540.897L291.822 576.772M305.122 540.897H374.352M305.122 540.897H235.892M374.352 540.897L363.268 576.772M374.352 540.897H443.581M443.581 540.897L434.715 576.772M291.822 576.772H363.268M291.822 576.772H220.376M351.452 615.02L363.268 576.772M351.452 615.02L338.826 655.885M351.452 615.02H425.261M363.268 576.772H434.715M220.376 576.772H148.929M220.376 576.772L235.892 540.897M434.715 576.772L425.261 615.02M235.892 540.897H166.663M338.826 655.885L325.307 699.646M338.826 655.885H415.161M425.261 615.02L415.161 655.885M415.161 655.885L404.345 699.646M246.268 699.646L228.852 746.621M246.268 699.646H325.307M246.268 699.646H167.229M325.307 699.646L310.794 746.621M325.307 699.646H404.345M404.345 699.646L392.735 746.621M228.852 746.621H310.794M228.852 746.621H146.911M295.174 797.177L310.794 746.621M295.174 797.177L278.317 851.742M295.174 797.177H380.239M310.794 746.621H392.735M146.911 746.621H64.97M146.911 746.621L167.229 699.646M392.735 746.621L380.239 797.177M167.229 699.646H88.1896M278.317 851.742L260.068 910.81M278.317 851.742H366.753M380.239 797.177L366.753 851.742M366.753 851.742L352.155 910.81M167.982 910.81L144.198 974.963M167.982 910.81H260.068M167.982 910.81H75.895M260.068 910.81L240.248 974.963M260.068 910.81H352.155M352.155 910.81L336.298 974.963M144.198 974.963H240.248M144.198 974.963H48.1473M218.645 1044.89L240.248 974.963M218.645 1044.89L195.007 1121.4M218.645 1044.89H319.016M240.248 974.963H336.298M48.1473 974.963H-47.9031M48.1473 974.963L75.895 910.81M336.298 974.963L319.016 1044.89M75.895 910.81H-16.1909M195.007 1121.4L169.032 1205.47M195.007 1121.4H300.106M319.016 1044.89L300.106 1121.4M300.106 1121.4L279.325 1205.47M58.7386 1205.47L24.3269 1298.29M58.7386 1205.47H169.032M58.7386 1205.47H-51.5552M169.032 1205.47L140.356 1298.29M169.032 1205.47H279.325M279.325 1205.47L256.384 1298.29M140.356 1298.29H24.3269M140.356 1298.29H256.384M24.3269 1298.29L-70.574 1298.29M-51.5552 1205.47L-70.574 1249.45M-51.5552 1205.47H-70.574M323.684 62.6907L316.499 74.3186M323.684 62.6907H363.366M323.684 62.6907H284.003M369.606 51.4688L375.632 40.6326M369.606 51.4688L363.366 62.6907M369.606 51.4688H408.594M375.632 40.6326H413.951M375.632 40.6326L381.455 30.1633M343.782 30.1633H381.455M343.782 30.1633L346.153 26.3277L350.038 20.0406M343.782 30.1633H306.111M363.366 62.6907L356.899 74.3186M363.366 62.6907H403.047M408.594 51.4688L413.951 40.6326M408.594 51.4688L403.047 62.6907M413.951 40.6326L417.849 32.7471L419.126 30.1633M381.455 30.1633L382.168 28.878L387.084 20.0406M381.455 30.1633H419.126M403.047 62.6907L397.299 74.3186M456.798 30.1633L461.176 20.0406M456.798 30.1633H419.126M419.126 30.1633L421.023 26.3277L424.13 20.0406M316.499 74.3186H356.899M316.499 74.3186H276.099M350.195 86.375L356.899 74.3186M350.195 86.375L343.238 98.8841M350.195 86.375H391.34M356.899 74.3186H397.299M276.099 74.3186H235.699M276.099 74.3186L284.003 62.6907M397.299 74.3186L391.34 86.375M284.003 62.6907H244.321M343.238 98.8841L341.458 102.084L336.015 111.872M343.238 98.8841H385.156M391.34 86.375L385.156 98.8841M385.156 98.8841L378.735 111.872M293.294 111.872L292.27 113.532L284.956 125.368M293.294 111.872H336.015M293.294 111.872H250.574M336.015 111.872L328.51 125.368M336.015 111.872H378.735M378.735 111.872L377.916 113.532L372.065 125.368M284.956 125.368H328.51M284.956 125.368H241.402M320.707 139.401L328.51 125.368M320.707 139.401L312.586 154.004M320.707 139.401H365.128M328.51 125.368H372.065M241.402 125.368H197.847M241.402 125.368L250.574 111.872M372.065 125.368L365.128 139.401M250.574 111.872H207.854M312.586 154.004L304.128 169.212M312.586 154.004H357.91M365.128 139.401L357.91 154.004M357.91 154.004L350.392 169.212M257.865 169.212L248.07 185.065M257.865 169.212H304.128M257.865 169.212H211.601M304.128 169.212L295.313 185.065M304.128 169.212H350.392M350.392 169.212L342.555 185.065M248.07 185.065H295.313M248.07 185.065H200.826M286.116 201.604L295.313 185.065M286.116 201.604L276.511 218.872M286.116 201.604H334.38M295.313 185.065H342.555M200.826 185.065H153.583M200.826 185.065L211.601 169.212M342.555 185.065L334.38 201.604M211.601 169.212H165.337M276.511 218.872L266.474 236.924M276.511 218.872H325.844M334.38 201.604L325.844 218.872M325.844 218.872L316.921 236.924M216.026 236.924L204.357 255.809M216.026 236.924H266.474M216.026 236.924H165.579M266.474 236.924L255.971 255.809M266.474 236.924H316.921M316.921 236.924L307.586 255.809M204.357 255.809H255.971M204.357 255.809H152.743M244.971 275.589L255.971 255.809M244.971 275.589L233.438 296.328M244.971 275.589H297.808M255.971 255.809H307.586M152.743 255.809H101.129M152.743 255.809L165.579 236.924M307.586 255.809L297.808 275.589M165.579 236.924H115.131M233.438 296.328L221.332 318.099M233.438 296.328H287.556M297.808 275.589L287.556 296.328M287.556 296.328L276.795 318.099M165.868 318.099L151.731 340.979M165.868 318.099H221.332M165.868 318.099H110.406M221.332 318.099L208.608 340.979M221.332 318.099H276.795M276.795 318.099L265.485 340.979M151.731 340.979H208.608M151.731 340.979H94.8536M195.218 365.056L208.608 340.979M195.218 365.056L181.11 390.427M195.218 365.056H253.583M208.608 340.979H265.485M94.8536 340.979H37.977M94.8536 340.979L110.406 318.099M265.485 340.979L253.583 365.056M110.406 318.099H54.9423M181.11 390.427L166.222 417.2M181.11 390.427H241.042M253.583 365.056L241.042 390.427M241.042 390.427L227.808 417.2M104.635 417.2L87.1546 445.489M104.635 417.2H166.222M104.635 417.2H43.049M166.222 417.2L150.489 445.489M166.222 417.2H227.808M227.808 417.2L213.824 445.489M87.1546 445.489H150.489M87.1546 445.489H23.8201M133.837 475.434L150.489 445.489M133.837 475.434L116.183 507.179M133.837 475.434H199.022M150.489 445.489H213.824M23.8201 445.489H-39.5144M23.8201 445.489L43.049 417.2M213.824 445.489L199.022 475.434M43.049 417.2H-18.5378M116.183 507.179L97.4328 540.897M116.183 507.179H183.329M199.022 475.434L183.329 507.179M183.329 507.179L166.663 540.897M28.2032 540.897L6.0366 576.772M28.2032 540.897H97.4328M28.2032 540.897H-41.0265M97.4328 540.897L77.483 576.772M97.4328 540.897H166.663M166.663 540.897L148.929 576.772M6.0366 576.772H77.483M6.0366 576.772H-65.4097M56.2121 615.02L77.483 576.772M56.2121 615.02L33.4869 655.885M56.2121 615.02H130.022M77.483 576.772H148.929M-65.4097 576.772L-41.0265 540.897M-65.4097 576.772H-70.574M-65.4097 576.772L-70.574 584.369M148.929 576.772L130.022 615.02M-41.0265 540.897H-70.574M33.4869 655.885L9.15145 699.646M33.4869 655.885H109.821M130.022 615.02L109.821 655.885M109.821 655.885L88.1896 699.646M-69.8875 699.646H9.15145M-69.8875 699.646H-70.574M-69.8875 699.646L-70.574 700.757M9.15145 699.646L-16.9721 746.621M9.15145 699.646H88.1896M88.1896 699.646L64.97 746.621M-45.0866 797.177L-16.9721 746.621M-45.0866 797.177H39.9786M-45.0866 797.177H-70.574M-45.0866 797.177L-70.574 843.01M-16.9721 746.621H64.97M-16.9721 746.621H-70.574M64.97 746.621L39.9786 797.177M39.9786 797.177L13.0071 851.742M13.0071 851.742L-16.1909 910.81M13.0071 851.742H-70.574M-16.1909 910.81L-47.9031 974.963M-16.1909 910.81H-70.574M-47.9031 974.963H-70.574M-47.9031 974.963L-70.574 1020.83M164.958 62.6907L154.899 74.3186M164.958 62.6907H204.64M164.958 62.6907H125.276M213.653 51.4688L222.357 40.6326M213.653 51.4688L204.64 62.6907M213.653 51.4688H252.642M222.357 40.6326H260.676M222.357 40.6326L230.768 30.1633M193.096 30.1633H230.768M193.096 30.1633L201.852 20.0406M193.096 30.1633H155.424M204.64 62.6907L195.299 74.3186M204.64 62.6907H244.321M252.642 51.4688L260.676 40.6326M252.642 51.4688L244.321 62.6907M260.676 40.6326L268.439 30.1633M230.768 30.1633L231.798 28.878L238.898 20.0406M230.768 30.1633H268.439M244.321 62.6907L235.699 74.3186M306.111 30.1633L312.991 20.0406M306.111 30.1633H268.439M268.439 30.1633L269.391 28.878L275.944 20.0406M154.899 74.3186H195.299M154.899 74.3186H114.499M185.615 86.375L195.299 74.3186M185.615 86.375L175.566 98.8841M185.615 86.375H226.76M195.299 74.3186H235.699M114.499 74.3186H74.0995M114.499 74.3186L125.276 62.6907M235.699 74.3186L226.76 86.375M125.276 62.6907H85.5947M175.566 98.8841L165.133 111.872M175.566 98.8841H217.484M226.76 86.375L225.619 87.9119L217.484 98.8841M217.484 98.8841L207.854 111.872M122.413 111.872L110.739 125.368M122.413 111.872H165.133M122.413 111.872H79.6922M165.133 111.872L154.293 125.368M165.133 111.872H207.854M207.854 111.872L197.847 125.368M110.739 125.368H154.293M110.739 125.368H67.1842M143.021 139.401L154.293 125.368M143.021 139.401L131.291 154.004M143.021 139.401H187.442M154.293 125.368H197.847M67.1842 125.368H23.6298M67.1842 125.368L79.6922 111.872M197.847 125.368L187.442 139.401M79.6922 111.872H36.9717M131.291 154.004L119.074 169.212M131.291 154.004H176.614M187.442 139.401L176.614 154.004M176.614 154.004L165.337 169.212M72.8107 169.212L59.0971 185.065M72.8107 169.212H119.074M72.8107 169.212H26.5469M119.074 169.212L106.341 185.065M119.074 169.212H165.337M165.337 169.212L153.583 185.065M59.0971 185.065H106.341M59.0971 185.065H11.8543M93.0556 201.604L106.341 185.065M93.0556 201.604L79.1838 218.872M93.0556 201.604H141.321M106.341 185.065H153.583M11.8543 185.065H-35.3885M11.8543 185.065L26.5469 169.212M153.583 185.065L141.321 201.604M26.5469 169.212H-19.7162M79.1838 218.872L64.684 236.924M79.1838 218.872H128.515M141.321 201.604L128.515 218.872M128.515 218.872L115.131 236.924M14.2366 236.924L-2.09992 255.809M14.2366 236.924H64.684M14.2366 236.924H-36.21M64.684 236.924L49.5144 255.809M64.684 236.924H115.131M115.131 236.924L101.129 255.809M-2.09992 255.809H49.5144M33.6253 275.589L49.5144 255.809M33.6253 275.589L16.9666 296.328M33.6253 275.589H86.4625M49.5144 255.809H101.129M101.129 255.809L86.4625 275.589M-36.21 236.924H-70.574M16.9666 296.328L-0.52107 318.099M16.9666 296.328H71.0843M86.4625 275.589L71.0843 296.328M71.0843 296.328L54.9423 318.099M-55.9844 318.099H-0.52107M-55.9844 318.099H-70.574M-55.9844 318.099L-70.574 334.964M-0.52107 318.099L-18.9004 340.979M-0.52107 318.099H54.9423M54.9423 318.099L37.977 340.979M-38.2405 365.056L-18.9004 340.979M-38.2405 365.056L-58.6197 390.427M-38.2405 365.056H20.1243M-38.2405 365.056H-70.574M-18.9004 340.979H37.977M-18.9004 340.979H-70.574M37.977 340.979L20.1243 365.056M-70.7347 335.15L-70.574 334.964M-58.6197 390.427H1.3124M-58.6197 390.427H-70.574M-58.6197 390.427L-70.574 405.309M20.1243 365.056L1.3124 390.427M1.3124 390.427L-18.5378 417.2M-18.5378 417.2L-39.5144 445.489M-18.5378 417.2H-70.574M-61.7172 475.434L-39.5144 445.489M-61.7172 475.434H-70.574M-61.7172 475.434L-70.574 487.378M-39.5144 445.489H-70.574M6.23189 62.6907L-6.70051 74.3186M6.23189 62.6907H45.9133M6.23189 62.6907H-33.4504M57.7003 51.4688L69.0827 40.6326M57.7003 51.4688L45.9133 62.6907M57.7003 51.4688H96.6887M69.0827 40.6326H107.401M69.0827 40.6326L80.0803 30.1633M42.4087 30.1633H80.0803M42.4087 30.1633L53.6667 20.0406M42.4087 30.1633H4.7371M45.9133 62.6907L33.6995 74.3186M45.9133 62.6907H85.5947M96.6887 51.4688L107.401 40.6326M96.6887 51.4688L85.5947 62.6907M107.401 40.6326L117.752 30.1633M80.0803 30.1633H117.752M80.0803 30.1633L90.7137 20.0406M85.5947 62.6907L74.0995 74.3186M155.424 30.1633L164.806 20.0406M155.424 30.1633H117.752M117.752 30.1633L127.76 20.0406M-6.70051 74.3186H33.6995M-6.70051 74.3186H-47.1005M21.0349 86.375L33.6995 74.3186M21.0349 86.375L7.8948 98.8841M21.0349 86.375H62.1798M33.6995 74.3186H74.0995M-47.1005 74.3186L-33.4504 62.6907M-47.1005 74.3186H-70.574M74.0995 74.3186L62.1798 86.375M-33.4504 62.6907H-70.574M7.8948 98.8841L-5.74876 111.872M7.8948 98.8841H49.8127M62.1798 86.375L49.8127 98.8841M49.8127 98.8841L36.9717 111.872M-48.4692 111.872L-63.479 125.368M-48.4692 111.872H-5.74876M-48.4692 111.872H-70.574M-5.74876 111.872L-19.9246 125.368M-5.74876 111.872H36.9717M36.9717 111.872L23.6298 125.368M-34.665 139.401L-19.9246 125.368M-34.665 139.401L-50.0044 154.004M-34.665 139.401H9.7563M-34.665 139.401H-70.574M-19.9246 125.368H-63.479M-19.9246 125.368H23.6298M-63.479 125.368L-70.574 131.747M-63.479 125.368H-70.574M23.6298 125.368L9.7563 139.401M-50.0044 154.004L-65.98 169.212M-50.0044 154.004H-4.6808M-50.0044 154.004H-70.574M9.7563 139.401L-4.6808 154.004M-4.6808 154.004L-19.7162 169.212M-65.98 169.212H-19.7162M-65.98 169.212L-70.574 173.585M-65.98 169.212H-70.574M-19.7162 169.212L-35.3885 185.065M-51.739 201.604L-35.3885 185.065M-51.739 201.604L-68.8122 218.872M-51.739 201.604H-70.574M-35.3885 185.065H-70.574M-70.8212 185.065H-70.574M-68.8122 218.872H-70.574M-68.8122 218.872L-70.574 220.655M-71 221.086L-70.574 220.655M-59.2641 51.4688L-45.8735 40.6326M-59.2641 51.4688H-70.574M-59.2641 51.4688L-70.574 60.6202M-45.8735 40.6326L-32.9345 30.1633M-45.8735 40.6326H-70.574M4.7371 30.1633L16.6205 20.0406M4.7371 30.1633H-32.9345M-32.9345 30.1633L-20.4256 20.0406M-32.9345 30.1633H-70.574M1239.15 20.0406H1276.19M1239.15 20.0406H1202.1M1267.12 10.2494L1269.36 12.6674L1276.19 20.0406M1267.12 10.2494H1303.56M1276.19 20.0406H1313.24M1303.56 10.2494L1305.95 12.6674L1307.15 13.882L1313.24 20.0406M1313.24 20.0406H1350.29M1350.29 20.0406H1387.33M1202.1 20.0406H1165.06M1387.33 20.0406H1424.38M1424.38 20.0406L1412.88 10.2494M1424.38 20.0406H1461.43M1412.88 10.2494H1449.32M1090.96 20.0406H1128.01M1090.96 20.0406H1053.92M1121.35 10.2494L1123 12.6674L1123.82 13.882L1128.01 20.0406M1121.35 10.2494H1157.8M1128.01 20.0406H1165.06M1157.8 10.2494L1165.06 20.0406M1053.92 20.0406H1016.87M942.778 20.0406H979.824M942.778 20.0406H905.732M975.588 10.2494L976.111 11.4547L976.634 12.6674L977.161 13.882L979.824 20.0406M975.588 10.2494H1012.03M979.824 20.0406H1016.87M1012.03 10.2494L1016.87 20.0406M905.732 20.0406H868.685M794.592 20.0406H831.638M794.592 20.0406H757.546M829.824 10.2494L831.638 20.0406M829.824 10.2494H866.265M831.638 20.0406H868.685M866.265 10.2494L866.564 11.4547L866.863 12.6674L867.164 13.882L868.685 20.0406M757.546 20.0406H720.5M646.408 20.0406H683.454M646.408 20.0406H609.362M684.059 10.2494L683.454 20.0406M684.059 10.2494H720.5M683.454 20.0406H720.5M720.5 10.2494V20.0406M609.362 20.0406H572.315M498.222 20.0406H535.268M498.222 20.0406H461.176M538.293 10.2494L537.547 12.6674L536.034 17.5612L535.268 20.0406M538.293 10.2494H574.735M535.268 20.0406H572.315M574.735 10.2494L574.436 11.4547L574.137 12.6674L573.837 13.882L572.315 20.0406M461.176 20.0406H424.13M350.038 20.0406H387.084M350.038 20.0406H312.991M392.529 10.2494L391.184 12.6674L390.508 13.882L387.084 20.0406M392.529 10.2494H428.97M387.084 20.0406H424.13M428.97 10.2494L428.374 11.4547L424.13 20.0406M312.991 20.0406H275.944M201.852 20.0406H238.898M201.852 20.0406H164.806M246.764 10.2494L244.821 12.6674L243.844 13.882L238.898 20.0406M246.764 10.2494H283.205M238.898 20.0406H275.944M283.205 10.2494L282.31 11.4547L275.944 20.0406M164.806 20.0406H127.76M53.6667 20.0406H90.7137M53.6667 20.0406H16.6205M100.998 10.2494L90.7137 20.0406M100.998 10.2494H137.44M90.7137 20.0406H127.76M137.44 10.2494L135.05 12.6674L133.847 13.882L127.76 20.0406M16.6205 20.0406H-20.4256M-44.766 10.2494L-57.4718 20.0406M-44.766 10.2494H-8.32469M-44.766 10.2494H-70.574M-57.4718 20.0406H-20.4256M-57.4718 20.0406L-70.574 30.1386M-57.4718 20.0406H-70.574M-8.32469 10.2494L-11.3126 12.6674L-20.4256 20.0406M1449.32 10.2494L1452.31 12.6674L1461.43 20.0406M1461.43 20.0406H1498.47M1498.47 20.0406L1511.57 30.1386M1498.47 20.0406H1511.57M1511.57 487.378V475.434M1511.57 487.378V507.179M1511.57 475.434V445.489M1511.57 507.179V513.096V540.897M1511.57 540.897V576.772M1511.57 255.809V236.924M1511.57 255.809V273.999M1511.57 10.2494V20.0406M1511.57 20.0406V30.1386M1511.57 30.1386L1511.61 30.1633H1511.57M1511.57 30.1386V30.1633M1511.57 30.1633V40.6326M1511.57 40.6326V51.4688M1511.57 51.4688V60.6202M1511.57 60.6202V62.6907M1511.57 62.6907V74.3186M1511.57 74.3186V86.375M1511.57 86.375V94.311M1511.57 94.311V98.8841M1511.57 98.8841V111.872M1511.57 111.872V125.368M1511.57 125.368V131.747M1511.57 131.747V139.401M1511.57 139.401V154.004M1511.57 154.004V169.212M1511.57 169.212V173.585M1511.57 173.585V185.065M1511.57 185.065V201.604M1511.57 201.604V218.872M1511.57 218.872V220.655M1511.57 220.655V236.924M1511.57 275.589V296.328M1511.57 275.589V273.999M1511.57 296.328V318.099M1511.57 318.099V334.964M1511.57 334.964V340.979M1511.57 340.979V365.056M1511.57 365.056V390.427M1511.57 390.427V405.309M1511.57 405.309V417.2M1511.57 417.2V445.489M1511.57 576.772V584.369M1511.57 584.369V615.02M1511.57 615.02V655.885M1511.57 655.885V699.646M1511.57 699.646V700.757M1511.57 700.757V746.621M1511.57 746.621V797.177M1511.57 797.177V843.01M1511.57 843.01V851.742M1511.57 851.742V910.81M1511.57 910.81V974.963M1511.57 974.963V1020.83M1511.57 1020.83V1044.89M1511.57 1044.89V1121.4M1511.57 1121.4V1205.47M1511.57 1205.47V1249.45M1511.57 1249.45V1298.29M1511.57 1298.29V1298.62H-70.574V1298.29M-70.574 275.589V296.328M-70.574 275.589V273.999M-70.574 273.999V255.809M-70.574 255.809V236.924M-70.574 236.924V220.655M-70.574 220.655V218.872M-70.574 218.872V201.604M-70.574 201.604V185.065M-70.574 185.065V173.585M-70.574 173.585V169.212M-70.574 169.212V154.004M-70.574 154.004V139.401M-70.574 139.401V131.747M-70.574 131.747V125.368M-70.574 125.368V111.872M-70.574 111.872V98.8841M-70.574 98.8841V94.311M-70.574 94.311V86.375M-70.574 86.375V74.3186M-70.574 74.3186V62.6907M-70.574 62.6907V60.6202M-70.574 60.6202V51.4688M-70.574 51.4688V40.6326M-70.574 40.6326V30.1633M-70.574 30.1633H-70.6061L-70.574 30.1386M-70.574 30.1633V30.1386M-70.574 30.1386V20.0406M-70.574 20.0406V10.2494M-70.574 1298.29V1249.45M-70.574 1249.45V1205.47M-70.574 1205.47V1121.4M-70.574 1121.4V1044.89M-70.574 1044.89V1020.83M-70.574 1020.83V974.963M-70.574 974.963V910.81M-70.574 910.81V851.742M-70.574 851.742V843.01M-70.574 843.01V797.177M-70.574 797.177V746.621M-70.574 746.621V700.757M-70.574 700.757V699.646M-70.574 699.646V655.885M-70.574 655.885V615.02M-70.574 615.02V584.369M-70.574 584.369V576.772M-70.574 576.772V540.897M-70.574 540.897V507.179M-70.574 507.179V487.378M-70.574 487.378V475.434M-70.574 475.434V445.489M-70.574 445.489V417.2M-70.574 417.2V405.309M-70.574 405.309V390.427M-70.574 390.427V365.056M-70.574 365.056V340.979M-70.574 340.979V334.964M-70.574 334.964V318.099M-70.574 318.099V296.328" stroke="url(#paint0_linear_16_3890)" stroke-width="1.2" stroke-miterlimit="10" stroke-linecap="round" stroke-linejoin="round"/>
<defs>
<linearGradient id="paint0_linear_16_3890" x1="720.5" y1="0.771238" x2="772.955" y2="1397.57" gradientUnits="userSpaceOnUse">
<stop stop-color="#092845" stop-opacity="0.4"/>
<stop offset="0.4349" stop-color="#092845" stop-opacity="0.5"/>
<stop offset="1" stop-color="#092845" stop-opacity="0"/>
</linearGradient>
</defs>
</svg>
